<?xml version="1.0" encoding="UTF-8"?>
<svg version="1.1" xmlns="http://www.w3.org/2000/svg" width="200" height="200">
<path d="M0 0 C2.5625 1.6875 2.5625 1.6875 4 4 C3.83849795 7.39154295 3.41703243 8.58296757 1 11 C0.01 11 -0.98 11 -2 11 C-2 35.09 -2 59.18 -2 84 C1.96 84 5.92 84 10 84 C10 60.24 10 36.48 10 12 C10.99 12 11.98 12 13 12 C13 35.76 13 59.52 13 84 C16.96 84 20.92 84 25 84 C24.93124806 77.21862731 24.84334182 70.4378786 24.73754883 63.65698242 C24.70426144 61.34943551 24.67624151 59.04180643 24.65356445 56.73413086 C24.62008892 53.42005338 24.56777602 50.10673155 24.51171875 46.79296875 C24.50532883 45.7585112 24.4989389 44.72405365 24.49235535 43.6582489 C24.47256119 42.6974794 24.45276703 41.7367099 24.43237305 40.74682617 C24.42126999 39.90077316 24.41016693 39.05472015 24.39872742 38.18302917 C23.91365608 35.52726778 22.95435571 34.78073971 21 33 C20.625 30.4375 20.625 30.4375 21 28 C24.46998729 25.68667514 25.92509248 25.66042437 30 26 C30.99 26.66 31.98 27.32 33 28 C33.375 31 33.375 31 33 34 C32.01 34.66 31.02 35.32 30 36 C29.52454116 38.13331595 29.52454116 38.13331595 29.56762695 40.63330078 C29.53793571 42.07456833 29.53793571 42.07456833 29.50764465 43.54495239 C29.50125473 44.58457123 29.49486481 45.62419006 29.48828125 46.6953125 C29.47033005 47.75789276 29.45237885 48.82047302 29.43388367 49.91525269 C29.37957998 53.31846107 29.34582037 56.72152764 29.3125 60.125 C29.27934468 62.42840524 29.24485671 64.73179172 29.20898438 67.03515625 C29.12384185 72.69000213 29.05712638 78.34480448 29 84 C32.96 84 36.92 84 41 84 C41 72.12 41 60.24 41 48 C42.32 47.67 43.64 47.34 45 47 C45 59.21 45 71.42 45 84 C49.888125 83.896875 54.77625 83.79375 59.8125 83.6875 C61.35139893 83.66260498 62.89029785 83.63770996 64.47583008 83.61206055 C66.29183716 83.56239136 66.29183716 83.56239136 68.14453125 83.51171875 C70.00621948 83.47244263 70.00621948 83.47244263 71.90551758 83.43237305 C75.30200897 82.95780214 75.83398043 82.45177201 78 80 C84.90410959 79.34246575 84.90410959 79.34246575 88.5 81.5 C89.2425 82.2425 89.2425 82.2425 90 83 C89.67 85.31 89.34 87.62 89 90 C84.92911778 92.03544111 82.38952651 92.21412435 78 91 C77.43267151 90.49715988 76.86534302 89.99431976 76.28082275 89.47624207 C73.12381067 87.43289432 70.21084731 87.56012145 66.56933594 87.56762695 C65.82748047 87.5574353 65.085625 87.54724365 64.32128906 87.53674316 C61.87557423 87.50661177 59.43025106 87.49734726 56.984375 87.48828125 C55.28613991 87.47143462 53.5879173 87.4532844 51.88970947 87.43388367 C47.42472226 87.38637557 42.9597856 87.35657153 38.49462891 87.33044434 C33.93642186 87.30064286 29.37838903 87.25411112 24.8203125 87.20898438 C15.88029946 87.1229421 6.94025056 87.05560095 -2 87 C-2 89.31 -2 91.62 -2 94 C22.42 94 46.84 94 72 94 C72 94.66 72 95.32 72 96 C47.58 96 23.16 96 -2 96 C-2 98.31 -2 100.62 -2 103 C4.86873269 102.90750772 11.73711962 102.80017311 18.60546875 102.68261719 C20.94102748 102.64438246 23.276644 102.60952005 25.61230469 102.578125 C28.97351705 102.5323553 32.33433355 102.47437964 35.6953125 102.4140625 C37.25658371 102.39673569 37.25658371 102.39673569 38.84939575 102.37905884 C44.02432153 102.27419653 48.09477198 101.78486382 53 100 C55.875 101.1875 55.875 101.1875 58 103 C58 103.99 58 104.98 58 106 C55 108 55 108 52.5 107.6875 C50.65095738 107.17901328 48.81927613 106.60642538 47 106 C45.38975487 105.88528988 43.77544145 105.8237226 42.16137695 105.79467773 C41.1805867 105.77473251 40.19979645 105.75478729 39.18928528 105.73423767 C38.13295395 105.71752518 37.07662262 105.70081268 35.98828125 105.68359375 C34.36323921 105.6524221 34.36323921 105.6524221 32.70536804 105.62062073 C29.24114384 105.55518203 25.7768432 105.49626647 22.3125 105.4375 C19.96548685 105.39430939 17.61848147 105.35069493 15.27148438 105.30664062 C9.51440396 105.19950643 3.75724733 105.09772936 -2 105 C-2 107.31 -2 109.62 -2 112 C10.87 112 23.74 112 37 112 C37 112.66 37 113.32 37 114 C24.13 114 11.26 114 -2 114 C-2 132.81 -2 151.62 -2 171 C-3.32 171 -4.64 171 -6 171 C-6 143.28 -6 115.56 -6 87 C-9.96 87 -13.92 87 -18 87 C-18 111.42 -18 135.84 -18 161 C-19.32 161 -20.64 161 -22 161 C-22 136.58 -22 112.16 -22 87 C-25.96 87 -29.92 87 -34 87 C-34 103.5 -34 120 -34 137 C-32.68 137.33 -31.36 137.66 -30 138 C-29 139 -29 139 -28.75 141.4375 C-28.8325 142.283125 -28.915 143.12875 -29 144 C-32.69486103 146.46324069 -34.63293092 146.38991688 -39 146 C-41 144.8125 -41 144.8125 -42 143 C-41.875 140.4375 -41.875 140.4375 -41 138 C-40.01 137.34 -39.02 136.68 -38 136 C-37.52427183 133.82584957 -37.52427183 133.82584957 -37.56762695 131.27490234 C-37.54783279 130.29403656 -37.52803864 129.31317078 -37.50764465 128.30258179 C-37.49805977 126.71034286 -37.49805977 126.71034286 -37.48828125 125.0859375 C-37.47033005 124.00116119 -37.45237885 122.91638489 -37.43388367 121.79873657 C-37.3795769 118.32419761 -37.34581932 114.84979758 -37.3125 111.375 C-37.27934496 109.02341808 -37.24485702 106.67185454 -37.20898438 104.3203125 C-37.12383857 98.54697495 -37.05712453 92.77368007 -37 87 C-40.96 87 -44.92 87 -49 87 C-49 99.54 -49 112.08 -49 125 C-50.32 125 -51.64 125 -53 125 C-53 112.46 -53 99.92 -53 87 C-63.56 87 -74.12 87 -85 87 C-85.66 88.32 -86.32 89.64 -87 91 C-90.35482588 92.04372361 -92.37236135 92.18543869 -95.75 91.1875 C-98 90 -98 90 -100 88 C-99.8125 85 -99.8125 85 -99 82 C-96.00261059 80.00174039 -95.36652492 79.72449602 -92 79.75 C-91.319375 79.74484375 -90.63875 79.7396875 -89.9375 79.734375 C-88 80 -88 80 -85 82 C-85 82.66 -85 83.32 -85 84 C-58.93 84 -32.86 84 -6 84 C-6 82.35 -6 80.7 -6 79 C-29.43 79 -52.86 79 -77 79 C-77.33 78.01 -77.66 77.02 -78 76 C-54.24 76 -30.48 76 -6 76 C-6 73.69 -6 71.38 -6 69 C-12.7080101 69.09260222 -19.41567 69.19995011 -26.12329102 69.31738281 C-28.40351049 69.35558341 -30.68378839 69.39045162 -32.96411133 69.421875 C-36.24842154 69.46771924 -39.53233262 69.52568214 -42.81640625 69.5859375 C-43.83021866 69.59748871 -44.84403107 69.60903992 -45.88856506 69.62094116 C-50.1344137 69.70877725 -53.95493796 69.82890656 -58.01147461 71.15087891 C-59.49079468 71.57119385 -59.49079468 71.57119385 -61 72 C-61.99 71.34 -62.98 70.68 -64 70 C-63.67 68.35 -63.34 66.7 -63 65 C-61.25 64.375 -61.25 64.375 -59 64 C-58.39573181 64.31568939 -57.79146362 64.63137878 -57.16888428 64.95663452 C-54.62754474 66.17917367 -52.85886889 66.27537832 -50.04785156 66.31884766 C-49.06713684 66.33871735 -48.08642212 66.35858704 -47.07598877 66.37905884 C-46.02481873 66.39061005 -44.97364868 66.40216125 -43.890625 66.4140625 C-42.80867859 66.43342865 -41.72673218 66.4527948 -40.61199951 66.4727478 C-37.15807974 66.53250237 -33.70412656 66.57891297 -30.25 66.625 C-27.90753759 66.66318353 -25.56508916 66.70223548 -23.22265625 66.7421875 C-17.48189501 66.83820056 -11.74104947 66.92326027 -6 67 C-6 64.69 -6 62.38 -6 60 C-18.21 60 -30.42 60 -43 60 C-43 59.34 -43 58.68 -43 58 C-30.79 57.67 -18.58 57.34 -6 57 C-6.33 42.15 -6.66 27.3 -7 12 C-8.32 11.34 -9.64 10.68 -11 10 C-12 7.125 -12 7.125 -12 4 C-9.14993687 -0.70879995 -5.05066726 -1.02252773 0 0 Z M-6 3 C-6.99 4.485 -6.99 4.485 -8 6 C-6.77190909 7.64555699 -6.77190909 7.64555699 -5 9 C-2.83700789 8.77242269 -2.83700789 8.77242269 -1 8 C-1.33 6.35 -1.66 4.7 -2 3 C-3.32 3 -4.64 3 -6 3 Z M26 29 C25.67 29.99 25.34 30.98 25 32 C26.32 32 27.64 32 29 32 C28.67 31.01 28.34 30.02 28 29 C27.34 29 26.68 29 26 29 Z M-60 67 C-60.33 67.66 -60.66 68.32 -61 69 C-60.01 68.67 -59.02 68.34 -58 68 C-58.66 67.67 -59.32 67.34 -60 67 Z M-94 83 C-94.33 84.32 -94.66 85.64 -95 87 C-92.525 87.495 -92.525 87.495 -90 88 C-89.34 87.01 -88.68 86.02 -88 85 C-88.66 84.34 -89.32 83.68 -90 83 C-91.32 83 -92.64 83 -94 83 Z M79 84 C79.33 85.32 79.66 86.64 80 88 C81.65 88 83.3 88 85 88 C85 86.68 85 85.36 85 84 C81.95086772 82.98888907 81.95086772 82.98888907 79 84 Z M51 103 C51.33 103.66 51.66 104.32 52 105 C52.66 105 53.32 105 54 105 C54 104.34 54 103.68 54 103 C53.01 103 52.02 103 51 103 Z M-37 140 C-37 140.99 -37 141.98 -37 143 C-36.01 143 -35.02 143 -34 143 C-34 142.01 -34 141.02 -34 140 C-34.99 140 -35.98 140 -37 140 Z " fill="#DC9B62" transform="translate(105,14)"/>
<path d="M0 0 C0.99 0.66 1.98 1.32 3 2 C3.375 5 3.375 5 3 8 C2.01 8.66 1.02 9.32 0 10 C-0.47545884 12.13331595 -0.47545884 12.13331595 -0.43237305 14.63330078 C-0.45216721 15.59414581 -0.47196136 16.55499084 -0.49235535 17.54495239 C-0.50194023 19.10438065 -0.50194023 19.10438065 -0.51171875 20.6953125 C-0.52966995 21.75789276 -0.54762115 22.82047302 -0.56611633 23.91525269 C-0.62042002 27.31846107 -0.65417963 30.72152764 -0.6875 34.125 C-0.72065532 36.42840524 -0.75514329 38.73179172 -0.79101562 41.03515625 C-0.87615815 46.69000213 -0.94287362 52.34480448 -1 58 C2.96 58 6.92 58 11 58 C11 46.12 11 34.24 11 22 C12.32 21.67 13.64 21.34 15 21 C15 33.21 15 45.42 15 58 C19.888125 57.896875 24.77625 57.79375 29.8125 57.6875 C32.12084839 57.65015747 32.12084839 57.65015747 34.47583008 57.61206055 C36.29183716 57.56239136 36.29183716 57.56239136 38.14453125 57.51171875 C40.00621948 57.47244263 40.00621948 57.47244263 41.90551758 57.43237305 C45.30200897 56.95780214 45.83398043 56.45177201 48 54 C54.90410959 53.34246575 54.90410959 53.34246575 58.5 55.5 C58.995 55.995 59.49 56.49 60 57 C59.67 59.31 59.34 61.62 59 64 C54.91053862 66.04473069 52.40193749 66.25769643 48 65 C47.17097168 64.33452148 46.34194336 63.66904297 45.48779297 62.98339844 C41.08608383 59.98105705 36.29094161 60.3969809 31.1328125 60.390625 C30.09808807 60.37408875 29.06336365 60.35755249 27.99728394 60.34051514 C24.70646185 60.2920983 21.41610171 60.27067758 18.125 60.25 C15.88799767 60.22183514 13.6510168 60.19190699 11.4140625 60.16015625 C5.94279202 60.08634118 0.47165111 60.03466161 -5 60 C-5.00586624 59.38025803 -5.01173248 58.76051605 -5.01777649 58.12199402 C-5.0816235 51.68185579 -5.16602033 45.24222132 -5.26245117 38.80249023 C-5.29574176 36.39793533 -5.32376067 33.99330149 -5.34643555 31.58862305 C-5.3799051 28.13556221 -5.43221797 24.68322739 -5.48828125 21.23046875 C-5.49467117 20.15226364 -5.5010611 19.07405853 -5.50764465 17.96318054 C-5.52743881 16.96236954 -5.54723297 15.96155853 -5.56762695 14.93041992 C-5.57873001 14.04883713 -5.58983307 13.16725433 -5.60127258 12.25895691 C-6.08090931 9.54161507 -6.99712539 8.80959023 -9 7 C-9.375 4.4375 -9.375 4.4375 -9 2 C-5.53001271 -0.31332486 -4.07490752 -0.33957563 0 0 Z M-4 3 C-4.33 3.99 -4.66 4.98 -5 6 C-3.68 6 -2.36 6 -1 6 C-1.33 5.01 -1.66 4.02 -2 3 C-2.66 3 -3.32 3 -4 3 Z M49 58 C49.33 59.32 49.66 60.64 50 62 C51.65 62 53.3 62 55 62 C55 60.68 55 59.36 55 58 C51.95086772 56.98888907 51.95086772 56.98888907 49 58 Z " fill="#E18F4C" transform="translate(135,40)"/>
<path d="M0 0 C0.680625 -0.00515625 1.36125 -0.0103125 2.0625 -0.015625 C4 0.25 4 0.25 7 2.25 C7 2.91 7 3.57 7 4.25 C33.07 4.25 59.14 4.25 86 4.25 C86.33 2.93 86.66 1.61 87 0.25 C87 2.23 87 4.21 87 6.25 C82.38 6.25 77.76 6.25 73 6.25 C73 30.34 73 54.43 73 79.25 C72.34 79.25 71.68 79.25 71 79.25 C71 55.16 71 31.07 71 6.25 C61.76 6.25 52.52 6.25 43 6.25 C43 19.12 43 31.99 43 45.25 C41.68 45.25 40.36 45.25 39 45.25 C39 32.71 39 20.17 39 7.25 C28.44 7.25 17.88 7.25 7 7.25 C6.34 8.57 5.68 9.89 5 11.25 C1.64517412 12.29372361 -0.37236135 12.43543869 -3.75 11.4375 C-6 10.25 -6 10.25 -8 8.25 C-7.8125 5.25 -7.8125 5.25 -7 2.25 C-4.00261059 0.25174039 -3.36652492 -0.02550398 0 0 Z M-2 3.25 C-2.33 4.57 -2.66 5.89 -3 7.25 C-0.525 7.745 -0.525 7.745 2 8.25 C2.66 7.26 3.32 6.27 4 5.25 C3.34 4.59 2.68 3.93 2 3.25 C0.68 3.25 -0.64 3.25 -2 3.25 Z " fill="#D78C4A" transform="translate(13,93.75)"/>
<path d="M0 0 C0.66 0 1.32 0 2 0 C2 19.14 2 38.28 2 58 C1.34 58 0.68 58 0 58 C0 59.98 0 61.96 0 64 C-0.33 64 -0.66 64 -1 64 C-1 61.69 -1 59.38 -1 57 C-7.7080101 57.09260222 -14.41567 57.19995011 -21.12329102 57.31738281 C-23.40351049 57.35558341 -25.68378839 57.39045162 -27.96411133 57.421875 C-31.24842154 57.46771924 -34.53233262 57.52568214 -37.81640625 57.5859375 C-38.83021866 57.59748871 -39.84403107 57.60903992 -40.88856506 57.62094116 C-45.1344137 57.70877725 -48.95493796 57.82890656 -53.01147461 59.15087891 C-53.99768799 59.43108887 -54.98390137 59.71129883 -56 60 C-56.99 59.34 -57.98 58.68 -59 58 C-58.67 56.35 -58.34 54.7 -58 53 C-56.25 52.375 -56.25 52.375 -54 52 C-53.09359772 52.47353409 -53.09359772 52.47353409 -52.16888428 52.95663452 C-49.62754474 54.17917367 -47.85886889 54.27537832 -45.04785156 54.31884766 C-43.57677948 54.34865219 -43.57677948 54.34865219 -42.07598877 54.37905884 C-41.02481873 54.39061005 -39.97364868 54.40216125 -38.890625 54.4140625 C-37.26770538 54.44311172 -37.26770538 54.44311172 -35.61199951 54.4727478 C-32.15807974 54.53250237 -28.70412656 54.57891297 -25.25 54.625 C-22.90753759 54.66318353 -20.56508916 54.70223548 -18.22265625 54.7421875 C-12.48189501 54.83820056 -6.74104947 54.92326027 -1 55 C-1 52.69 -1 50.38 -1 48 C-13.21 48 -25.42 48 -38 48 C-38 47.34 -38 46.68 -38 46 C-25.79 45.67 -13.58 45.34 -1 45 C-0.67 30.15 -0.34 15.3 0 0 Z M-55 55 C-55.33 55.66 -55.66 56.32 -56 57 C-55.01 56.67 -54.02 56.34 -53 56 C-53.66 55.67 -54.32 55.34 -55 55 Z " fill="#EBAB63" transform="translate(100,26)"/>
<path d="M0 0 C0.99 0 1.98 0 3 0 C3 23.76 3 47.52 3 72 C6.96 72 10.92 72 15 72 C15 72.66 15 73.32 15 74 C30.51 74 46.02 74 62 74 C62 74.33 62 74.66 62 75 C37.58 75 13.16 75 -12 75 C-12 74.67 -12 74.34 -12 74 C-6.555 73.01 -6.555 73.01 -1 72 C-0.67 48.24 -0.34 24.48 0 0 Z " fill="#E7A164" transform="translate(115,26)"/>
<path d="M0 0 C0.99 0.66 1.98 1.32 3 2 C3.375 5 3.375 5 3 8 C2.01 8.66 1.02 9.32 0 10 C-0.47545884 12.13331595 -0.47545884 12.13331595 -0.43237305 14.63330078 C-0.45216721 15.59414581 -0.47196136 16.55499084 -0.49235535 17.54495239 C-0.50194023 19.10438065 -0.50194023 19.10438065 -0.51171875 20.6953125 C-0.52966995 21.75789276 -0.54762115 22.82047302 -0.56611633 23.91525269 C-0.62042002 27.31846107 -0.65417963 30.72152764 -0.6875 34.125 C-0.72065532 36.42840524 -0.75514329 38.73179172 -0.79101562 41.03515625 C-0.87615777 46.68997699 -0.94442232 52.34481564 -1 58 C-1.33 58 -1.66 58 -2 58 C-2.33 44.47 -2.66 30.94 -3 17 C-3.33 30.53 -3.66 44.06 -4 58 C-4.33 58 -4.66 58 -5 58 C-5.00586624 57.40531418 -5.01173248 56.81062836 -5.01777649 56.19792175 C-5.08163122 50.01729245 -5.16602993 43.8371877 -5.26245117 37.65698242 C-5.29573856 35.34943551 -5.32375849 33.04180643 -5.34643555 30.73413086 C-5.37991108 27.42005338 -5.43222398 24.10673155 -5.48828125 20.79296875 C-5.49786613 19.24128242 -5.49786613 19.24128242 -5.50764465 17.6582489 C-5.52743881 16.6974794 -5.54723297 15.7367099 -5.56762695 14.74682617 C-5.58428154 13.47774666 -5.58428154 13.47774666 -5.60127258 12.18302917 C-6.08634392 9.52726778 -7.04564429 8.78073971 -9 7 C-9.375 4.4375 -9.375 4.4375 -9 2 C-5.53001271 -0.31332486 -4.07490752 -0.33957563 0 0 Z M-4 3 C-4.33 3.99 -4.66 4.98 -5 6 C-3.68 6 -2.36 6 -1 6 C-1.33 5.01 -1.66 4.02 -2 3 C-2.66 3 -3.32 3 -4 3 Z " fill="#E19756" transform="translate(135,40)"/>
<path d="M0 0 C0.66 0 1.32 0 2 0 C2 1.32 2 2.64 2 4 C15.2 4 28.4 4 42 4 C42 4.66 42 5.32 42 6 C29.13 6.33 16.26 6.66 3 7 C2.67 24.16 2.34 41.32 2 59 C1.34 59 0.68 59 0 59 C0 39.53 0 20.06 0 0 Z " fill="#EAA55D" transform="translate(100,122)"/>
<path d="M0 0 C0.66 0 1.32 0 2 0 C2 16.5 2 33 2 50 C3.65 50.33 5.3 50.66 7 51 C8 52 8 52 8.25 54.4375 C8.1675 55.283125 8.085 56.12875 8 57 C4.30513897 59.46324069 2.36706908 59.38991688 -2 59 C-4 57.8125 -4 57.8125 -5 56 C-4.875 53.4375 -4.875 53.4375 -4 51 C-3.01 50.34 -2.02 49.68 -1 49 C-0.52427183 46.82584957 -0.52427183 46.82584957 -0.56762695 44.27490234 C-0.54783279 43.29403656 -0.52803864 42.31317078 -0.50764465 41.30258179 C-0.50125473 40.24108917 -0.49486481 39.17959656 -0.48828125 38.0859375 C-0.47033005 37.00116119 -0.45237885 35.91638489 -0.43388367 34.79873657 C-0.3795769 31.32419761 -0.34581932 27.84979758 -0.3125 24.375 C-0.27934496 22.02341808 -0.24485702 19.67185454 -0.20898438 17.3203125 C-0.12383894 11.54699959 -0.05557568 5.77366913 0 0 Z M0 53 C0 53.99 0 54.98 0 56 C0.99 56 1.98 56 3 56 C3 55.01 3 54.02 3 53 C2.01 53 1.02 53 0 53 Z " fill="#ED9E54" transform="translate(68,101)"/>
<path d="M0 0 C2.03515625 0.4609375 2.03515625 0.4609375 3.76391602 2.45605469 C6.75112303 5.09293999 8.46731819 4.97124074 12.41015625 5 C13.6425 5.02320312 14.87484375 5.04640625 16.14453125 5.0703125 C18.07039063 5.07804687 18.07039063 5.07804687 20.03515625 5.0859375 C22.57692026 5.11145722 25.11862006 5.14496383 27.66015625 5.1875 C28.78679688 5.19346191 29.9134375 5.19942383 31.07421875 5.20556641 C34.03515625 5.4609375 34.03515625 5.4609375 38.03515625 7.4609375 C27.14515625 7.4609375 16.25515625 7.4609375 5.03515625 7.4609375 C4.37515625 8.7809375 3.71515625 10.1009375 3.03515625 11.4609375 C-0.31966963 12.50466111 -2.3372051 12.64637619 -5.71484375 11.6484375 C-7.96484375 10.4609375 -7.96484375 10.4609375 -9.96484375 8.4609375 C-9.77734375 5.4609375 -9.77734375 5.4609375 -8.96484375 2.4609375 C-5.75047846 0.31802731 -3.79057766 0.16067959 0 0 Z M-3.96484375 3.4609375 C-4.29484375 4.7809375 -4.62484375 6.1009375 -4.96484375 7.4609375 C-2.48984375 7.9559375 -2.48984375 7.9559375 0.03515625 8.4609375 C0.69515625 7.4709375 1.35515625 6.4809375 2.03515625 5.4609375 C1.37515625 4.8009375 0.71515625 4.1409375 0.03515625 3.4609375 C-1.28484375 3.4609375 -2.60484375 3.4609375 -3.96484375 3.4609375 Z " fill="#E8AA72" transform="translate(14.96484375,93.5390625)"/>
<path d="M0 0 C0.33 0 0.66 0 1 0 C1 2.31 1 4.62 1 7 C7.86873269 6.90750772 14.73711962 6.80017311 21.60546875 6.68261719 C23.94102748 6.64438246 26.276644 6.60952005 28.61230469 6.578125 C31.97351705 6.5323553 35.33433355 6.47437964 38.6953125 6.4140625 C40.25658371 6.39673569 40.25658371 6.39673569 41.84939575 6.37905884 C47.02432153 6.27419653 51.09477198 5.78486382 56 4 C58.875 5.1875 58.875 5.1875 61 7 C61 7.99 61 8.98 61 10 C58 12 58 12 55.5 11.6875 C53.65095738 11.17901328 51.81927613 10.60642538 50 10 C48.38975487 9.88528988 46.77544145 9.8237226 45.16137695 9.79467773 C44.1805867 9.77473251 43.19979645 9.75478729 42.18928528 9.73423767 C41.13295395 9.71752518 40.07662262 9.70081268 38.98828125 9.68359375 C37.90491989 9.66281265 36.82155853 9.64203156 35.70536804 9.62062073 C32.24114384 9.55518203 28.7768432 9.49626647 25.3125 9.4375 C22.96548685 9.39430939 20.61848147 9.35069493 18.27148438 9.30664062 C12.51440396 9.19950643 6.75724733 9.09772936 1 9 C1 11.31 1 13.62 1 16 C0.67 16 0.34 16 0 16 C0 10.72 0 5.44 0 0 Z M54 7 C54.33 7.66 54.66 8.32 55 9 C55.66 9 56.32 9 57 9 C57 8.34 57 7.68 57 7 C56.01 7 55.02 7 54 7 Z " fill="#EAA372" transform="translate(102,110)"/>
<path d="M0 0 C3.53333523 0.11712713 5.49832617 0.81082617 8.0625 3.375 C7.7325 5.685 7.4025 7.995 7.0625 10.375 C2.9984666 12.4070167 0.42547288 12.73842902 -3.9375 11.375 C-4.68797607 10.54524658 -5.43845215 9.71549316 -6.21166992 8.8605957 C-9.55189669 5.81475167 -11.09707846 5.72897838 -15.55078125 5.66796875 C-16.79794922 5.63896484 -18.04511719 5.60996094 -19.33007812 5.58007812 C-20.62365234 5.57427734 -21.91722656 5.56847656 -23.25 5.5625 C-24.56291016 5.53736328 -25.87582031 5.51222656 -27.22851562 5.48632812 C-30.46514489 5.42748032 -33.70042218 5.39118063 -36.9375 5.375 C-36.9375 5.045 -36.9375 4.715 -36.9375 4.375 C-36.04442139 4.36041748 -35.15134277 4.34583496 -34.23120117 4.33081055 C-30.91532722 4.26972923 -27.60028101 4.19557522 -24.28491211 4.11254883 C-22.85045372 4.07930999 -21.41586487 4.05127465 -19.98120117 4.02856445 C-17.91789193 3.99499729 -15.85577697 3.94268587 -13.79296875 3.88671875 C-11.93128052 3.84744263 -11.93128052 3.84744263 -10.03198242 3.80737305 C-5.4352362 3.16509789 -4.78663991 0.45587047 0 0 Z M-2.9375 4.375 C-2.6075 5.695 -2.2775 7.015 -1.9375 8.375 C-0.2875 8.375 1.3625 8.375 3.0625 8.375 C3.0625 7.055 3.0625 5.735 3.0625 4.375 C0.01336772 3.36388907 0.01336772 3.36388907 -2.9375 4.375 Z " fill="#C6773C" transform="translate(186.9375,93.625)"/>
<path d="M0 0 C0.33 0 0.66 0 1 0 C1 26.07 1 52.14 1 79 C1.66 79 2.32 79 3 79 C3 61.84 3 44.68 3 27 C3.33 27 3.66 27 4 27 C4 45.48 4 63.96 4 83 C2.68 83 1.36 83 0 83 C0 55.61 0 28.22 0 0 Z " fill="#D89D6A" transform="translate(99,102)"/>
<path d="M0 0 C2.43933928 0.32056435 2.43933928 0.32056435 4.97387695 0.31884766 C6.41480461 0.34865219 6.41480461 0.34865219 7.88484192 0.37905884 C8.9089769 0.39061005 9.93311188 0.40216125 10.98828125 0.4140625 C12.04661667 0.43342865 13.10495209 0.4527948 14.19535828 0.4727478 C17.56765748 0.53241248 20.93999106 0.57887693 24.3125 0.625 C26.60222823 0.66319181 28.89194228 0.70224424 31.18164062 0.7421875 C36.78763431 0.83810326 42.39371376 0.92318911 48 1 C48 1.66 48 2.32 48 3 C47.14008705 3.01213028 47.14008705 3.01213028 46.26280212 3.02450562 C40.27630066 3.11080861 34.29012054 3.21032246 28.30395508 3.31738281 C26.0722393 3.35557883 23.84046393 3.39044781 21.60864258 3.421875 C18.39382686 3.46772929 15.17941808 3.52569037 11.96484375 3.5859375 C10.97290512 3.59748871 9.98096649 3.60903992 8.95896912 3.62094116 C4.76572632 3.7095357 1.00781846 3.84532856 -2.99780273 5.15087891 C-3.98852783 5.43108887 -4.97925293 5.71129883 -6 6 C-6.99 5.34 -7.98 4.68 -9 4 C-8.67 2.35 -8.34 0.7 -8 -1 C-4.29083848 -2.23638717 -3.50341157 -1.44554317 0 0 Z M-5 1 C-5.33 1.66 -5.66 2.32 -6 3 C-5.01 2.67 -4.02 2.34 -3 2 C-3.66 1.67 -4.32 1.34 -5 1 Z " fill="#E9B986" transform="translate(50,80)"/>
<path d="M0 0 C3.4375 0.75 3.4375 0.75 5.4375 2.75 C5.75 5.25 5.75 5.25 5.4375 7.75 C1.74263897 10.21324069 -0.19543092 10.13991688 -4.5625 9.75 C-6.5625 8.5625 -6.5625 8.5625 -7.5625 6.75 C-7.4375 4.1875 -7.4375 4.1875 -6.5625 1.75 C-3.5625 -0.25 -3.5625 -0.25 0 0 Z M-2.5625 3.75 C-2.5625 4.74 -2.5625 5.73 -2.5625 6.75 C-1.5725 6.75 -0.5825 6.75 0.4375 6.75 C0.4375 5.76 0.4375 4.77 0.4375 3.75 C-0.5525 3.75 -1.5425 3.75 -2.5625 3.75 Z " fill="#DD833C" transform="translate(70.5625,150.25)"/>
<path d="M0 0 C0.33 0 0.66 0 1 0 C1.33 14.52 1.66 29.04 2 44 C0.68 44 -0.64 44 -2 44 C-1.88207974 37.89430893 -1.75785627 31.78879181 -1.62768555 25.68334961 C-1.58426666 23.60460943 -1.54259688 21.52583197 -1.50268555 19.44702148 C-1.44515079 16.46586855 -1.38140881 13.48490451 -1.31640625 10.50390625 C-1.29969376 9.56849503 -1.28298126 8.6330838 -1.26576233 7.66932678 C-1.24581711 6.80850998 -1.22587189 5.94769318 -1.20532227 5.06079102 C-1.18977798 4.29912125 -1.1742337 3.53745148 -1.15821838 2.75270081 C-1 1 -1 1 0 0 Z " fill="#EC9446" transform="translate(132,56)"/>
<path d="M0 0 C6.4 -0.36923077 6.4 -0.36923077 9.4375 1.5 C9.953125 1.995 10.46875 2.49 11 3 C10.67 5.31 10.34 7.62 10 10 C5.92630576 12.03684712 3.41062136 12.0257259 -1 11 C1.31856917 9.45428722 3.50638429 8.20381448 6 7 C5.67 6.01 5.34 5.02 5 4 C3.35 3.67 1.7 3.34 0 3 C0 2.01 0 1.02 0 0 Z " fill="#E08C4B" transform="translate(184,94)"/>
<path d="M0 0 C2.1875 1.375 2.1875 1.375 3 3.5 C3.061875 4.11875 3.12375 4.7375 3.1875 5.375 C0.1875 7.375 0.1875 7.375 -2 7.1875 C-5.69620682 6.11970692 -9.22747337 4.77255275 -12.8125 3.375 C-4.63272472 -1.02949438 -4.63272472 -1.02949438 0 0 Z M-3.8125 2.375 C-3.4825 3.035 -3.1525 3.695 -2.8125 4.375 C-2.1525 4.375 -1.4925 4.375 -0.8125 4.375 C-0.8125 3.715 -0.8125 3.055 -0.8125 2.375 C-1.8025 2.375 -2.7925 2.375 -3.8125 2.375 Z " fill="#D9965B" transform="translate(159.8125,114.625)"/>
<path d="M0 0 C0.66 0 1.32 0 2 0 C2 5.61 2 11.22 2 17 C1.34 17 0.68 17 0 17 C0 18.98 0 20.96 0 23 C-0.33 23 -0.66 23 -1 23 C-1.90375653 16.67370431 -1.90375653 11.32629569 -1 5 C-1.99 4.67 -2.98 4.34 -4 4 C-3.01 4 -2.02 4 -1 4 C-0.67 2.68 -0.34 1.36 0 0 Z " fill="#E6914B" transform="translate(100,67)"/>
<path d="M0 0 C1.32 0.66 2.64 1.32 4 2 C3.01 2.495 3.01 2.495 2 3 C1.87625 3.639375 1.7525 4.27875 1.625 4.9375 C1 7 1 7 -0.625 8.3125 C-4.04115573 9.30138718 -6.56770231 8.81127036 -10 8 C-12 6.6875 -12 6.6875 -13 5 C-12.6875 2.8125 -12.6875 2.8125 -12 1 C-11.67 2.32 -11.34 3.64 -11 5 C-7.7 4.67 -4.4 4.34 -1 4 C-0.67 2.68 -0.34 1.36 0 0 Z " fill="#DD985C" transform="translate(18,97)"/>
<path d="M0 0 C2.375 1.3125 2.375 1.3125 3.1875 3.4375 C3.249375 4.05625 3.31125 4.675 3.375 5.3125 C0.0625 6.4375 0.0625 6.4375 -3.625 7.3125 C-4.615 6.6525 -5.605 5.9925 -6.625 5.3125 C-6.295 3.6625 -5.965 2.0125 -5.625 0.3125 C-2.625 -0.6875 -2.625 -0.6875 0 0 Z M-2.625 2.3125 C-2.955 2.9725 -3.285 3.6325 -3.625 4.3125 C-2.635 3.9825 -1.645 3.6525 -0.625 3.3125 C-1.285 2.9825 -1.945 2.6525 -2.625 2.3125 Z " fill="#DC965C" transform="translate(47.625,78.6875)"/>
<path d="M0 0 C0.99 0 1.98 0 3 0 C3 5.28 3 10.56 3 16 C2.67 15.01 2.34 14.02 2 13 C1.34 13 0.68 13 0 13 C0 8.71 0 4.42 0 0 Z " fill="#EBA763" transform="translate(115,26)"/>
<path d="M0 0 C1.32 0.33 2.64 0.66 4 1 C4 1.66 4 2.32 4 3 C5.65 3 7.3 3 9 3 C9 4.32 9 5.64 9 7 C2.25 6.125 2.25 6.125 0 5 C0 3.35 0 1.7 0 0 Z " fill="#E18F48" transform="translate(94,19)"/>
<path d="M0 0 C0.99 0.66 1.98 1.32 3 2 C3.1875 4.625 3.1875 4.625 3 7 C2.67 5.68 2.34 4.36 2 3 C0.906875 3.185625 -0.18625 3.37125 -1.3125 3.5625 C-5 4 -5 4 -8 3 C-8.33 4.32 -8.66 5.64 -9 7 C-9.1875 4.625 -9.1875 4.625 -9 2 C-5.53001271 -0.31332486 -4.07490752 -0.33957563 0 0 Z " fill="#E09A5D" transform="translate(135,40)"/>
<path d="M0 0 C0 1.32 0 2.64 0 4 C-2.95664519 5.4783226 -5.74229737 5.06032783 -9 5 C-9.33 4.34 -9.66 3.68 -10 3 C-9.67 2.34 -9.34 1.68 -9 1 C-5.98003217 0.45091494 -3.07380605 0 0 0 Z " fill="#EB9F55" transform="translate(75,155)"/>
<path d="M0 0 C0.99 0 1.98 0 3 0 C3 8.25 3 16.5 3 25 C2.67 25 2.34 25 2 25 C1.97494385 24.34926514 1.9498877 23.69853027 1.92407227 23.02807617 C1.80806298 20.08101954 1.68535885 17.1342787 1.5625 14.1875 C1.52318359 13.16333984 1.48386719 12.13917969 1.44335938 11.08398438 C1.40146484 10.10107422 1.35957031 9.11816406 1.31640625 8.10546875 C1.26141968 6.74651489 1.26141968 6.74651489 1.20532227 5.36010742 C1.0791795 2.84951218 1.0791795 2.84951218 0 0 Z " fill="#CE9765" transform="translate(147,61)"/>
<path d="M0 0 C2 1.25 2 1.25 4 3 C4 4.32 4 5.64 4 7 C2.68 7 1.36 7 0 7 C-0.38133299 5.0085944 -0.71325582 3.00720923 -1 1 C-0.67 0.67 -0.34 0.34 0 0 Z " fill="#D58840" transform="translate(7,95)"/>
<path d="M0 0 C3.375 -0.125 3.375 -0.125 7 0 C7.66 0.66 8.32 1.32 9 2 C6.04335481 3.4783226 3.25770263 3.06032783 0 3 C0 2.01 0 1.02 0 0 Z " fill="#E69554" transform="translate(184,94)"/>
<path d="M0 0 C0.66 0 1.32 0 2 0 C2 1.32 2 2.64 2 4 C2.66 4 3.32 4 4 4 C3.34 5.32 2.68 6.64 2 8 C1.34 8 0.68 8 0 8 C0 5.36 0 2.72 0 0 Z " fill="#F09741" transform="translate(100,122)"/>
<path d="M0 0 C2.64 0 5.28 0 8 0 C7.01 1.485 7.01 1.485 6 3 C2.875 3.1875 2.875 3.1875 0 3 C0 2.01 0 1.02 0 0 Z " fill="#E89E5C" transform="translate(9,94)"/>
<path d="M0 0 C1.32 0 2.64 0 4 0 C4.33 1.65 4.66 3.3 5 5 C3.02 5.99 3.02 5.99 1 7 C0.67 4.69 0.34 2.38 0 0 Z " fill="#E18A41" transform="translate(133,43)"/>
<path d="M0 0 C1.32 0.66 2.64 1.32 4 2 C3.01 2.495 3.01 2.495 2 3 C1.34786708 5.02463255 1.34786708 5.02463255 1 7 C-0.65 6.67 -2.3 6.34 -4 6 C-3.34 5.566875 -2.68 5.13375 -2 4.6875 C-1.01 3.8521875 -1.01 3.8521875 0 3 C0 2.01 0 1.02 0 0 Z " fill="#EF9F55" transform="translate(18,97)"/>
<path d="M0 0 C2.4375 0.75 2.4375 0.75 5 2 C5.8125 4.125 5.8125 4.125 6 6 C3.5625 5.25 3.5625 5.25 1 4 C0.1875 1.875 0.1875 1.875 0 0 Z " fill="#D38A48" transform="translate(45,78)"/>
<path d="M0 0 C0.6875 1.8125 0.6875 1.8125 1 4 C-0.25 5.75 -0.25 5.75 -2 7 C-2.99 7 -3.98 7 -5 7 C-4.67 5.35 -4.34 3.7 -4 2 C-3.67 2.66 -3.34 3.32 -3 4 C-2.34 3.67 -1.68 3.34 -1 3 C-0.67 2.01 -0.34 1.02 0 0 Z " fill="#DF9B5F" transform="translate(108,18)"/>
<path d="M0 0 C1.32 0.33 2.64 0.66 4 1 C3.67 2.65 3.34 4.3 3 6 C2.34 6 1.68 6 1 6 C0.67 4.02 0.34 2.04 0 0 Z " fill="#EB8F3F" transform="translate(104,16)"/>
<path d="M0 0 C0.99 0.33 1.98 0.66 3 1 C3 2.65 3 4.3 3 6 C2.67 5.01 2.34 4.02 2 3 C0.68 3.33 -0.64 3.66 -2 4 C-2 3.01 -2 2.02 -2 1 C-1.34 0.67 -0.68 0.34 0 0 Z " fill="#DA8E48" transform="translate(73,152)"/>
<path d="M0 0 C-0.33 0.66 -0.66 1.32 -1 2 C-3.875 2.75 -3.875 2.75 -7 3 C-7.99 2.34 -8.98 1.68 -10 1 C-6.52674819 -0.1577506 -3.63932552 -0.06866652 0 0 Z " fill="#DD945A" transform="translate(193,103)"/>
<path d="M0 0 C0.66 0 1.32 0 2 0 C2 1.65 2 3.3 2 5 C0.02 5 -1.96 5 -4 5 C-3.01 4.67 -2.02 4.34 -1 4 C-0.26676204 1.98491642 -0.26676204 1.98491642 0 0 Z " fill="#CD8742" transform="translate(100,67)"/>
</svg>
