<?xml version="1.0" encoding="UTF-8"?>
<svg version="1.1" xmlns="http://www.w3.org/2000/svg" width="1280" height="245">
<path d="M0 0 C0 40.59 0 81.18 0 123 C-8.22800097 125.74266699 -17.32692545 124 -26 124 C-26.33 100.9 -26.66 77.8 -27 54 C-31.10099667 58.68685334 -35.17849513 63.36391825 -39.1875 68.125 C-43.08569202 72.74515483 -47.00147104 77.34953413 -50.9375 81.9375 C-51.43378906 82.5162085 -51.93007812 83.09491699 -52.44140625 83.69116211 C-54.99426222 86.6666081 -57.55028495 89.63928931 -60.109375 92.609375 C-64.71733169 97.96313235 -69.29693252 103.32827624 -73.75 108.8125 C-84.80196629 122.40098315 -84.80196629 122.40098315 -88 124 C-93.55654753 124.36436377 -96.37926305 124.36306269 -101 121 C-103.05064549 118.9409875 -104.90020857 116.73941107 -106.75 114.5 C-107.27730713 113.87343506 -107.80461426 113.24687012 -108.34790039 112.60131836 C-112.14382352 108.07742575 -115.86876047 103.49566541 -119.58984375 98.91015625 C-123.05287365 94.72870199 -126.626979 90.64664166 -130.19628906 86.5559082 C-133.43007695 82.8404621 -136.59329192 79.08353213 -139.6875 75.25 C-143.52941119 70.50077399 -147.58637389 65.98732608 -151.73828125 61.5078125 C-153.92078288 59.0878366 -155.9642611 56.54467362 -158 54 C-158.33 76.77 -158.66 99.54 -159 123 C-167.22800097 125.74266699 -176.32692545 124 -185 124 C-185 83.08 -185 42.16 -185 0 C-167 0 -167 0 -161.4375 3.875 C-159.91550607 5.54529078 -158.43533339 7.25467628 -157 9 C-156.25878906 9.78117187 -155.51757812 10.56234375 -154.75390625 11.3671875 C-149.1360764 17.30631437 -144.22861919 23.7854477 -139.30029297 30.29248047 C-132.56597612 39.13585487 -125.57965216 47.78041696 -118.55322266 56.39208984 C-115.84844948 59.71066643 -113.1670184 63.03916113 -110.5625 66.4375 C-108.23911343 69.43404924 -105.87829658 72.39264758 -103.46875 75.3203125 C-102.8286499 76.09834229 -102.1885498 76.87637207 -101.52905273 77.67797852 C-98.68926611 81.12132997 -95.84678337 84.56243064 -93 88 C-88.00588206 84.1796493 -84.46221323 79.9875746 -80.75 74.9375 C-79.60362202 73.40730906 -78.45517001 71.87866982 -77.3046875 70.3515625 C-76.74362305 69.60680664 -76.18255859 68.86205078 -75.60449219 68.09472656 C-72.6785391 64.27478172 -69.5612584 60.62514525 -66.45703125 56.94921875 C-61.83852692 51.40554503 -57.43542463 45.69037876 -53 40 C-18.84828025 -3.76965605 -18.84828025 -3.76965605 0 0 Z " fill="#F7811D" transform="translate(1262,60)"/>
<path d="M0 0 C1.60002617 -0.00856522 1.60002617 -0.00856522 3.2323761 -0.01730347 C4.40277435 -0.01842133 5.57317261 -0.01953918 6.77903748 -0.02069092 C8.62828575 -0.02813828 8.62828575 -0.02813828 10.51489258 -0.03573608 C13.89959178 -0.04784869 17.28422916 -0.0553047 20.66894269 -0.05974674 C22.78652986 -0.06268029 24.90411164 -0.06678579 27.02169609 -0.07125092 C33.65532676 -0.08492856 40.28894509 -0.09459212 46.92258888 -0.09845281 C54.56391535 -0.10292489 62.20506217 -0.12043191 69.84633404 -0.1494534 C75.76157986 -0.1711339 81.67677541 -0.18116058 87.59206051 -0.18249393 C91.12026723 -0.18353804 94.64830515 -0.18936041 98.1764698 -0.20731354 C102.12087292 -0.226993 106.06505539 -0.22247996 110.00950623 -0.21600342 C111.16573486 -0.2252182 112.3219635 -0.23443298 113.51322937 -0.243927 C124.5307919 -0.18744946 134.35824121 2.1129641 142.60496521 9.77325439 C149.73917726 17.45890312 149.18588025 25.9287771 149.15965271 35.95294189 C149.17576599 37.17303955 149.19187927 38.39313721 149.20848083 39.65020752 C149.21528047 52.30432825 146.7501419 60.71736448 138.13621521 69.98028564 C127.28650275 80.4408734 113.28636443 83.11485302 98.84715271 84.14044189 C101.15914879 88.89791011 104.46030484 91.27302492 108.79637146 94.05450439 C109.83178825 94.73722916 109.83178825 94.73722916 110.88812256 95.43374634 C113.09728483 96.88760696 115.31547366 98.3269284 117.53465271 99.76544189 C120.4156604 101.65026173 123.2933426 103.54014 126.17137146 105.42950439 C126.88219879 105.89527893 127.59302612 106.36105347 128.32539368 106.84094238 C133.53494678 110.26019694 138.71599684 113.71904151 143.86668396 117.22637939 C144.55445419 117.69025055 145.24222443 118.1541217 145.95083618 118.63204956 C150.73016421 121.9064649 150.73016421 121.9064649 151.84715271 124.14044189 C146.69188621 124.31577799 141.53841871 124.44156146 136.38084412 124.52496338 C134.63314015 124.55978907 132.88563418 124.60726985 131.13865662 124.66851807 C118.71964752 125.09246014 110.44871271 123.85459118 99.84715271 117.14044189 C98.57049744 116.38766968 98.57049744 116.38766968 97.26805115 115.61968994 C94.90904179 114.21271981 92.59602075 112.7491817 90.28465271 111.26544189 C81.40809749 105.66723621 72.40983587 100.30437742 63.34715271 95.01544189 C62.71082916 94.6440509 62.07450562 94.27265991 61.41889954 93.89001465 C58.52813092 92.20339391 55.63660317 90.51811703 52.74363708 88.83526611 C50.88542904 87.74797007 49.04883902 86.62232755 47.24290466 85.45025635 C44.74610655 84.08519756 43.23448389 83.72991424 40.42137146 83.62872314 C39.70296082 83.59561035 38.98455017 83.56249756 38.24436951 83.52838135 C37.35016296 83.50348633 36.45595642 83.47859131 35.53465271 83.45294189 C32.66777771 83.34981689 29.80090271 83.24669189 26.84715271 83.14044189 C26.84715271 75.88044189 26.84715271 68.62044189 26.84715271 61.14044189 C29.07199402 61.12585938 31.29683533 61.11127686 33.58909607 61.09625244 C40.96526834 61.04576612 48.34123262 60.97914674 55.71720028 60.90472698 C60.18636181 60.86012543 64.65543432 60.82084718 69.1247406 60.79400635 C73.44321568 60.76787094 77.76134632 60.72739726 82.07960701 60.67725563 C83.72165686 60.66065581 85.3637662 60.64909887 87.00588799 60.64282799 C101.88897431 60.89365263 101.88897431 60.89365263 114.78465271 54.26544189 C115.32992615 53.79364502 115.87519958 53.32184814 116.43699646 52.83575439 C119.79723474 48.79602194 120.12105852 44.75628573 120.09715271 39.64044189 C120.10230896 38.53700439 120.10746521 37.43356689 120.11277771 36.29669189 C119.7275481 31.71925775 118.81814676 29.06033099 115.47215271 25.89044189 C111.87023797 23.4891654 108.9184848 23.02056923 104.64567566 22.98222351 C103.81730572 22.97244948 102.98893578 22.96267546 102.13546371 22.95260525 C100.77990309 22.94394987 100.77990309 22.94394987 99.3969574 22.93511963 C98.42508106 22.92508691 97.45320473 22.91505419 96.45187759 22.90471745 C93.3076185 22.87334878 90.1633468 22.84856792 87.01902771 22.82403564 C85.07712901 22.8056307 83.13523436 22.78679394 81.19334412 22.76751709 C73.99466152 22.69908909 66.79590139 22.63902371 59.59715271 22.57794189 C43.50965271 22.43356689 27.42215271 22.28919189 10.84715271 22.14044189 C10.84715271 55.80044189 10.84715271 89.46044189 10.84715271 124.14044189 C2.26715271 124.14044189 -6.31284729 124.14044189 -15.15284729 124.14044189 C-16.1262875 99.70013954 -16.29187298 75.25987334 -16.33451843 50.80336761 C-16.34034604 48.26598696 -16.35005888 45.72864819 -16.3608551 43.19128418 C-16.37756485 39.13128071 -16.3837407 35.07138882 -16.38204384 31.01135254 C-16.38288317 29.49354495 -16.38704179 27.97573509 -16.39473534 26.45794678 C-16.4045855 24.35215293 -16.4017159 22.24673079 -16.39576721 20.14093018 C-16.39719223 18.95347198 -16.39861725 17.76601379 -16.40008545 16.54257202 C-16.08588285 12.21897519 -15.52927926 7.85043815 -12.75050354 4.39825439 C-8.33180979 1.13764069 -5.42884424 0.01739887 0 0 Z " fill="#F7801C" transform="translate(638.1528472900391,59.85955810546875)"/>
<path d="M0 0 C8.58 0 17.16 0 26 0 C26.0093457 2.22484131 26.01869141 4.44968262 26.02832031 6.74194336 C26.06218779 14.11814443 26.11779068 21.49406861 26.18390274 28.87004757 C26.22330067 33.33924194 26.25552662 37.80824155 26.27099609 42.27758789 C26.2862136 46.59613506 26.32074853 50.91414651 26.36830902 55.2324543 C26.38307055 56.87450041 26.391038 58.51662303 26.39188385 60.15873528 C26.35734157 72.60377502 26.35734157 72.60377502 31 84 C31.70769531 85.17949219 31.70769531 85.17949219 32.4296875 86.3828125 C41.61399077 97.45362131 57.18689529 101.64058083 71 103 C75.45572359 103.19622197 79.91171061 103.25601062 84.37109375 103.31640625 C86.07078308 103.34438293 86.07078308 103.34438293 87.80480957 103.3729248 C92.01563118 103.44094349 96.22657421 103.50126973 100.4375 103.5625 C109.863125 103.706875 119.28875 103.85125 129 104 C129 69.68 129 35.36 129 0 C137.58 0 146.16 0 155 0 C156 1 156 1 156.12304783 3.02836704 C156.12212604 3.9271152 156.12120424 4.82586336 156.12025452 5.75184631 C156.12231651 7.2936985 156.12231651 7.2936985 156.12442017 8.86669922 C156.12082489 10.00389404 156.11722961 11.14108887 156.11352539 12.31274414 C156.11367142 13.50282578 156.11381744 14.69290741 156.1139679 15.91905212 C156.11338894 19.19163274 156.10835981 22.46417107 156.10139394 25.73674321 C156.09515967 29.15338665 156.09455654 32.57003083 156.09336853 35.98667908 C156.09025543 42.46069267 156.08204233 48.93468946 156.07201904 55.40869564 C156.06085725 62.7773792 156.05534729 70.14606355 156.05032361 77.51475346 C156.03985969 92.67651169 156.02226066 107.83825417 156 123 C152.56347726 124.14550758 149.91682477 124.12704354 146.29150391 124.12939453 C145.61278732 124.13114685 144.93407074 124.13289917 144.23478699 124.13470459 C141.98201967 124.1391164 139.72933068 124.13618159 137.4765625 124.1328125 C135.89448024 124.13348713 134.31239807 124.13445848 132.73031616 124.13571167 C129.39962791 124.13718887 126.0689664 124.13503851 122.73828125 124.13037109 C118.53258452 124.12475641 114.32695214 124.12799882 110.12125778 124.13380432 C80.50063591 124.16871474 80.50063591 124.16871474 67.6796875 123.5703125 C66.50063339 123.51534103 66.50063339 123.51534103 65.29776001 123.45925903 C45.41383125 122.34739877 24.8993768 116.29376212 10.96875 101.37890625 C0.44000656 88.6566746 -0.44457296 75.68881948 -0.29296875 59.86328125 C-0.28736231 58.13022736 -0.28309718 56.39716866 -0.28010559 54.66410828 C-0.2687392 50.1382192 -0.2393443 45.61262636 -0.20599365 41.08685303 C-0.17511421 36.45442713 -0.16156233 31.82195263 -0.14648438 27.18945312 C-0.11446533 18.12615206 -0.06176611 9.06314719 0 0 Z " fill="#F9801A" transform="translate(881,60)"/>
<path d="M0 0 C53.79 0 107.58 0 163 0 C163 6.6 163 13.2 163 20 C140.56 20 118.12 20 95 20 C95.020625 25.28 95.04125 30.56 95.0625 36 C95.09736382 55.50333081 94.81906036 74.99995032 94.5 94.5 C94.48804218 95.23105957 94.47608437 95.96211914 94.46376419 96.71533203 C94.31450716 105.81031784 94.15797492 114.90515828 94 124 C85.42 124 76.84 124 68 124 C68 89.68 68 55.36 68 20 C45.56 20 23.12 20 0 20 C0 13.4 0 6.8 0 0 Z " fill="#F7811A" transform="translate(439,60)"/>
<path d="M0 0 C8.58 0 17.16 0 26 0 C26 34.32 26 68.64 26 104 C63.62 104 101.24 104 140 104 C140 110.27 140 116.54 140 123 C125.73295218 123.13184078 111.46589258 123.26231984 97.19881725 123.39115143 C90.57109662 123.45104054 83.9433808 123.51136523 77.31567383 123.57275391 C70.89654286 123.63219349 64.47740169 123.69039949 58.05825233 123.74781799 C55.63278125 123.76971729 53.20731385 123.79203047 50.78185081 123.81480408 C49.05221816 123.83100548 49.05221816 123.83100548 47.28764343 123.84753418 C46.28888026 123.85701836 45.29011709 123.86650253 44.26108837 123.87627411 C29.50461032 123.99952223 14.75918112 124 0 124 C0 83.08 0 42.16 0 0 Z " fill="#F7821F" transform="translate(225,60)"/>
<path d="M0 0 C2.5625 1.6875 2.5625 1.6875 4 4 C3.83849795 7.39154295 3.41703243 8.58296757 1 11 C0.01 11 -0.98 11 -2 11 C-2 35.09 -2 59.18 -2 84 C1.96 84 5.92 84 10 84 C10 60.24 10 36.48 10 12 C10.99 12 11.98 12 13 12 C13 35.76 13 59.52 13 84 C16.96 84 20.92 84 25 84 C24.93124806 77.21862731 24.84334182 70.4378786 24.73754883 63.65698242 C24.70426144 61.34943551 24.67624151 59.04180643 24.65356445 56.73413086 C24.62008892 53.42005338 24.56777602 50.10673155 24.51171875 46.79296875 C24.50532883 45.7585112 24.4989389 44.72405365 24.49235535 43.6582489 C24.47256119 42.6974794 24.45276703 41.7367099 24.43237305 40.74682617 C24.42126999 39.90077316 24.41016693 39.05472015 24.39872742 38.18302917 C23.91365608 35.52726778 22.95435571 34.78073971 21 33 C20.625 30.4375 20.625 30.4375 21 28 C24.46998729 25.68667514 25.92509248 25.66042437 30 26 C30.99 26.66 31.98 27.32 33 28 C33.375 31 33.375 31 33 34 C32.01 34.66 31.02 35.32 30 36 C29.52454116 38.13331595 29.52454116 38.13331595 29.56762695 40.63330078 C29.53793571 42.07456833 29.53793571 42.07456833 29.50764465 43.54495239 C29.50125473 44.58457123 29.49486481 45.62419006 29.48828125 46.6953125 C29.47033005 47.75789276 29.45237885 48.82047302 29.43388367 49.91525269 C29.37957998 53.31846107 29.34582037 56.72152764 29.3125 60.125 C29.27934468 62.42840524 29.24485671 64.73179172 29.20898438 67.03515625 C29.12384185 72.69000213 29.05712638 78.34480448 29 84 C32.96 84 36.92 84 41 84 C41 72.12 41 60.24 41 48 C42.32 47.67 43.64 47.34 45 47 C45 59.21 45 71.42 45 84 C49.888125 83.896875 54.77625 83.79375 59.8125 83.6875 C61.35139893 83.66260498 62.89029785 83.63770996 64.47583008 83.61206055 C66.29183716 83.56239136 66.29183716 83.56239136 68.14453125 83.51171875 C70.00621948 83.47244263 70.00621948 83.47244263 71.90551758 83.43237305 C75.30200897 82.95780214 75.83398043 82.45177201 78 80 C84.90410959 79.34246575 84.90410959 79.34246575 88.5 81.5 C89.2425 82.2425 89.2425 82.2425 90 83 C89.67 85.31 89.34 87.62 89 90 C84.92911778 92.03544111 82.38952651 92.21412435 78 91 C77.43267151 90.49715988 76.86534302 89.99431976 76.28082275 89.47624207 C73.12381067 87.43289432 70.21084731 87.56012145 66.56933594 87.56762695 C65.82748047 87.5574353 65.085625 87.54724365 64.32128906 87.53674316 C61.87557423 87.50661177 59.43025106 87.49734726 56.984375 87.48828125 C55.28613991 87.47143462 53.5879173 87.4532844 51.88970947 87.43388367 C47.42472226 87.38637557 42.9597856 87.35657153 38.49462891 87.33044434 C33.93642186 87.30064286 29.37838903 87.25411112 24.8203125 87.20898438 C15.88029946 87.1229421 6.94025056 87.05560095 -2 87 C-2 89.31 -2 91.62 -2 94 C22.42 94 46.84 94 72 94 C72 94.66 72 95.32 72 96 C47.58 96 23.16 96 -2 96 C-2 98.31 -2 100.62 -2 103 C4.86873269 102.90750772 11.73711962 102.80017311 18.60546875 102.68261719 C20.94102748 102.64438246 23.276644 102.60952005 25.61230469 102.578125 C28.97351705 102.5323553 32.33433355 102.47437964 35.6953125 102.4140625 C37.25658371 102.39673569 37.25658371 102.39673569 38.84939575 102.37905884 C44.02432153 102.27419653 48.09477198 101.78486382 53 100 C55.875 101.1875 55.875 101.1875 58 103 C58 103.99 58 104.98 58 106 C55 108 55 108 52.5 107.6875 C50.65095738 107.17901328 48.81927613 106.60642538 47 106 C45.38975487 105.88528988 43.77544145 105.8237226 42.16137695 105.79467773 C41.1805867 105.77473251 40.19979645 105.75478729 39.18928528 105.73423767 C38.13295395 105.71752518 37.07662262 105.70081268 35.98828125 105.68359375 C34.36323921 105.6524221 34.36323921 105.6524221 32.70536804 105.62062073 C29.24114384 105.55518203 25.7768432 105.49626647 22.3125 105.4375 C19.96548685 105.39430939 17.61848147 105.35069493 15.27148438 105.30664062 C9.51440396 105.19950643 3.75724733 105.09772936 -2 105 C-2 107.31 -2 109.62 -2 112 C10.87 112 23.74 112 37 112 C37 112.66 37 113.32 37 114 C24.13 114 11.26 114 -2 114 C-2 132.81 -2 151.62 -2 171 C-3.32 171 -4.64 171 -6 171 C-6 143.28 -6 115.56 -6 87 C-9.96 87 -13.92 87 -18 87 C-18 111.42 -18 135.84 -18 161 C-19.32 161 -20.64 161 -22 161 C-22 136.58 -22 112.16 -22 87 C-25.96 87 -29.92 87 -34 87 C-34 103.5 -34 120 -34 137 C-32.68 137.33 -31.36 137.66 -30 138 C-29 139 -29 139 -28.75 141.4375 C-28.8325 142.283125 -28.915 143.12875 -29 144 C-32.69486103 146.46324069 -34.63293092 146.38991688 -39 146 C-41 144.8125 -41 144.8125 -42 143 C-41.875 140.4375 -41.875 140.4375 -41 138 C-40.01 137.34 -39.02 136.68 -38 136 C-37.52427183 133.82584957 -37.52427183 133.82584957 -37.56762695 131.27490234 C-37.54783279 130.29403656 -37.52803864 129.31317078 -37.50764465 128.30258179 C-37.49805977 126.71034286 -37.49805977 126.71034286 -37.48828125 125.0859375 C-37.47033005 124.00116119 -37.45237885 122.91638489 -37.43388367 121.79873657 C-37.3795769 118.32419761 -37.34581932 114.84979758 -37.3125 111.375 C-37.27934496 109.02341808 -37.24485702 106.67185454 -37.20898438 104.3203125 C-37.12383857 98.54697495 -37.05712453 92.77368007 -37 87 C-40.96 87 -44.92 87 -49 87 C-49 99.54 -49 112.08 -49 125 C-50.32 125 -51.64 125 -53 125 C-53 112.46 -53 99.92 -53 87 C-63.56 87 -74.12 87 -85 87 C-85.66 88.32 -86.32 89.64 -87 91 C-90.35482588 92.04372361 -92.37236135 92.18543869 -95.75 91.1875 C-98 90 -98 90 -100 88 C-99.8125 85 -99.8125 85 -99 82 C-96.00261059 80.00174039 -95.36652492 79.72449602 -92 79.75 C-91.319375 79.74484375 -90.63875 79.7396875 -89.9375 79.734375 C-88 80 -88 80 -85 82 C-85 82.66 -85 83.32 -85 84 C-58.93 84 -32.86 84 -6 84 C-6 82.35 -6 80.7 -6 79 C-29.43 79 -52.86 79 -77 79 C-77.33 78.01 -77.66 77.02 -78 76 C-54.24 76 -30.48 76 -6 76 C-6 73.69 -6 71.38 -6 69 C-12.7080101 69.09260222 -19.41567 69.19995011 -26.12329102 69.31738281 C-28.40351049 69.35558341 -30.68378839 69.39045162 -32.96411133 69.421875 C-36.24842154 69.46771924 -39.53233262 69.52568214 -42.81640625 69.5859375 C-43.83021866 69.59748871 -44.84403107 69.60903992 -45.88856506 69.62094116 C-50.1344137 69.70877725 -53.95493796 69.82890656 -58.01147461 71.15087891 C-59.49079468 71.57119385 -59.49079468 71.57119385 -61 72 C-61.99 71.34 -62.98 70.68 -64 70 C-63.67 68.35 -63.34 66.7 -63 65 C-61.25 64.375 -61.25 64.375 -59 64 C-58.39573181 64.31568939 -57.79146362 64.63137878 -57.16888428 64.95663452 C-54.62754474 66.17917367 -52.85886889 66.27537832 -50.04785156 66.31884766 C-49.06713684 66.33871735 -48.08642212 66.35858704 -47.07598877 66.37905884 C-46.02481873 66.39061005 -44.97364868 66.40216125 -43.890625 66.4140625 C-42.80867859 66.43342865 -41.72673218 66.4527948 -40.61199951 66.4727478 C-37.15807974 66.53250237 -33.70412656 66.57891297 -30.25 66.625 C-27.90753759 66.66318353 -25.56508916 66.70223548 -23.22265625 66.7421875 C-17.48189501 66.83820056 -11.74104947 66.92326027 -6 67 C-6 64.69 -6 62.38 -6 60 C-18.21 60 -30.42 60 -43 60 C-43 59.34 -43 58.68 -43 58 C-30.79 57.67 -18.58 57.34 -6 57 C-6.33 42.15 -6.66 27.3 -7 12 C-8.32 11.34 -9.64 10.68 -11 10 C-12 7.125 -12 7.125 -12 4 C-9.14993687 -0.70879995 -5.05066726 -1.02252773 0 0 Z M-6 3 C-6.99 4.485 -6.99 4.485 -8 6 C-6.77190909 7.64555699 -6.77190909 7.64555699 -5 9 C-2.83700789 8.77242269 -2.83700789 8.77242269 -1 8 C-1.33 6.35 -1.66 4.7 -2 3 C-3.32 3 -4.64 3 -6 3 Z M26 29 C25.67 29.99 25.34 30.98 25 32 C26.32 32 27.64 32 29 32 C28.67 31.01 28.34 30.02 28 29 C27.34 29 26.68 29 26 29 Z M-60 67 C-60.33 67.66 -60.66 68.32 -61 69 C-60.01 68.67 -59.02 68.34 -58 68 C-58.66 67.67 -59.32 67.34 -60 67 Z M-94 83 C-94.33 84.32 -94.66 85.64 -95 87 C-92.525 87.495 -92.525 87.495 -90 88 C-89.34 87.01 -88.68 86.02 -88 85 C-88.66 84.34 -89.32 83.68 -90 83 C-91.32 83 -92.64 83 -94 83 Z M79 84 C79.33 85.32 79.66 86.64 80 88 C81.65 88 83.3 88 85 88 C85 86.68 85 85.36 85 84 C81.95086772 82.98888907 81.95086772 82.98888907 79 84 Z M51 103 C51.33 103.66 51.66 104.32 52 105 C52.66 105 53.32 105 54 105 C54 104.34 54 103.68 54 103 C53.01 103 52.02 103 51 103 Z M-37 140 C-37 140.99 -37 141.98 -37 143 C-36.01 143 -35.02 143 -34 143 C-34 142.01 -34 141.02 -34 140 C-34.99 140 -35.98 140 -37 140 Z " fill="#DC9B62" transform="translate(115,36)"/>
<path d="M0 0 C8.58 0 17.16 0 26 0 C26 40.92 26 81.84 26 124 C17.42 124 8.84 124 0 124 C0 83.08 0 42.16 0 0 Z " fill="#F3821E" transform="translate(392,60)"/>
<path d="M0 0 C8.25 0 16.5 0 25 0 C26 1 26 1 26.12304783 3.02836704 C26.12212604 3.9271152 26.12120424 4.82586336 26.12025452 5.75184631 C26.12162918 6.77974777 26.12300385 7.80764923 26.12442017 8.86669922 C26.12082489 10.00389404 26.11722961 11.14108887 26.11352539 12.31274414 C26.11367142 13.50282578 26.11381744 14.69290741 26.1139679 15.91905212 C26.11338894 19.19163274 26.10835981 22.46417107 26.10139394 25.73674321 C26.09515967 29.15338665 26.09455654 32.57003083 26.09336853 35.98667908 C26.09025543 42.46069267 26.08204233 48.93468946 26.07201904 55.40869564 C26.06085725 62.7773792 26.05534729 70.14606355 26.05032361 77.51475346 C26.03985969 92.67651169 26.02226066 107.83825417 26 123 C17.58588177 125.10352956 8.67307455 124 0 124 C0 83.08 0 42.16 0 0 Z " fill="#F17F1E" transform="translate(822,60)"/>
<path d="M0 0 C53.79 0 107.58 0 163 0 C163 6.6 163 13.2 163 20 C140.56 20 118.12 20 95 20 C95 21.65 95 23.3 95 25 C94.34 25.33 93.68 25.66 93 26 C93 23.69 93 21.38 93 19 C115.77 19 138.54 19 162 19 C162 13.06 162 7.12 162 1 C108.87 1 55.74 1 1 1 C1 6.94 1 12.88 1 19 C23.77 19 46.54 19 70 19 C70 52.99 70 86.98 70 122 C77.59 122 85.18 122 93 122 C93 94.28 93 66.56 93 38 C95.45754113 41.6863117 95.24019241 44.35709957 95.15625 48.61328125 C95.14815308 49.42896072 95.14005615 50.2446402 95.13171387 51.08503723 C95.09860563 54.05692081 95.04906769 57.02833791 95 60 C94.9656074 62.51871015 94.93178923 65.03742819 94.8984375 67.55615234 C94.79188313 75.3618706 94.66554746 83.16722255 94.53643799 90.97259521 C94.47499204 94.70762354 94.41531476 98.44268013 94.35546875 102.17773438 C94.23866632 109.45185116 94.11980593 116.72593195 94 124 C85.42 124 76.84 124 68 124 C68 89.68 68 55.36 68 20 C45.56 20 23.12 20 0 20 C0 13.4 0 6.8 0 0 Z " fill="#CE7D39" transform="translate(439,60)"/>
<path d="M0 0 C0.99 0.66 1.98 1.32 3 2 C3.375 5 3.375 5 3 8 C2.01 8.66 1.02 9.32 0 10 C-0.47545884 12.13331595 -0.47545884 12.13331595 -0.43237305 14.63330078 C-0.45216721 15.59414581 -0.47196136 16.55499084 -0.49235535 17.54495239 C-0.50194023 19.10438065 -0.50194023 19.10438065 -0.51171875 20.6953125 C-0.52966995 21.75789276 -0.54762115 22.82047302 -0.56611633 23.91525269 C-0.62042002 27.31846107 -0.65417963 30.72152764 -0.6875 34.125 C-0.72065532 36.42840524 -0.75514329 38.73179172 -0.79101562 41.03515625 C-0.87615815 46.69000213 -0.94287362 52.34480448 -1 58 C2.96 58 6.92 58 11 58 C11 46.12 11 34.24 11 22 C12.32 21.67 13.64 21.34 15 21 C15 33.21 15 45.42 15 58 C19.888125 57.896875 24.77625 57.79375 29.8125 57.6875 C32.12084839 57.65015747 32.12084839 57.65015747 34.47583008 57.61206055 C36.29183716 57.56239136 36.29183716 57.56239136 38.14453125 57.51171875 C40.00621948 57.47244263 40.00621948 57.47244263 41.90551758 57.43237305 C45.30200897 56.95780214 45.83398043 56.45177201 48 54 C54.90410959 53.34246575 54.90410959 53.34246575 58.5 55.5 C58.995 55.995 59.49 56.49 60 57 C59.67 59.31 59.34 61.62 59 64 C54.91053862 66.04473069 52.40193749 66.25769643 48 65 C47.17097168 64.33452148 46.34194336 63.66904297 45.48779297 62.98339844 C41.08608383 59.98105705 36.29094161 60.3969809 31.1328125 60.390625 C30.09808807 60.37408875 29.06336365 60.35755249 27.99728394 60.34051514 C24.70646185 60.2920983 21.41610171 60.27067758 18.125 60.25 C15.88799767 60.22183514 13.6510168 60.19190699 11.4140625 60.16015625 C5.94279202 60.08634118 0.47165111 60.03466161 -5 60 C-5.00586624 59.38025803 -5.01173248 58.76051605 -5.01777649 58.12199402 C-5.0816235 51.68185579 -5.16602033 45.24222132 -5.26245117 38.80249023 C-5.29574176 36.39793533 -5.32376067 33.99330149 -5.34643555 31.58862305 C-5.3799051 28.13556221 -5.43221797 24.68322739 -5.48828125 21.23046875 C-5.49467117 20.15226364 -5.5010611 19.07405853 -5.50764465 17.96318054 C-5.52743881 16.96236954 -5.54723297 15.96155853 -5.56762695 14.93041992 C-5.57873001 14.04883713 -5.58983307 13.16725433 -5.60127258 12.25895691 C-6.08090931 9.54161507 -6.99712539 8.80959023 -9 7 C-9.375 4.4375 -9.375 4.4375 -9 2 C-5.53001271 -0.31332486 -4.07490752 -0.33957563 0 0 Z M-4 3 C-4.33 3.99 -4.66 4.98 -5 6 C-3.68 6 -2.36 6 -1 6 C-1.33 5.01 -1.66 4.02 -2 3 C-2.66 3 -3.32 3 -4 3 Z M49 58 C49.33 59.32 49.66 60.64 50 62 C51.65 62 53.3 62 55 62 C55 60.68 55 59.36 55 58 C51.95086772 56.98888907 51.95086772 56.98888907 49 58 Z " fill="#E18F4C" transform="translate(145,62)"/>
<path d="M0 0 C0.680625 -0.00515625 1.36125 -0.0103125 2.0625 -0.015625 C4 0.25 4 0.25 7 2.25 C7 2.91 7 3.57 7 4.25 C33.07 4.25 59.14 4.25 86 4.25 C86.33 2.93 86.66 1.61 87 0.25 C87 2.23 87 4.21 87 6.25 C82.38 6.25 77.76 6.25 73 6.25 C73 30.34 73 54.43 73 79.25 C72.34 79.25 71.68 79.25 71 79.25 C71 55.16 71 31.07 71 6.25 C61.76 6.25 52.52 6.25 43 6.25 C43 19.12 43 31.99 43 45.25 C41.68 45.25 40.36 45.25 39 45.25 C39 32.71 39 20.17 39 7.25 C28.44 7.25 17.88 7.25 7 7.25 C6.34 8.57 5.68 9.89 5 11.25 C1.64517412 12.29372361 -0.37236135 12.43543869 -3.75 11.4375 C-6 10.25 -6 10.25 -8 8.25 C-7.8125 5.25 -7.8125 5.25 -7 2.25 C-4.00261059 0.25174039 -3.36652492 -0.02550398 0 0 Z M-2 3.25 C-2.33 4.57 -2.66 5.89 -3 7.25 C-0.525 7.745 -0.525 7.745 2 8.25 C2.66 7.26 3.32 6.27 4 5.25 C3.34 4.59 2.68 3.93 2 3.25 C0.68 3.25 -0.64 3.25 -2 3.25 Z " fill="#D78C4A" transform="translate(23,115.75)"/>
<path d="M0 0 C8.58 0 17.16 0 26 0 C27 1 27 1 27.12304783 3.02836704 C27.12212604 3.9271152 27.12120424 4.82586336 27.12025452 5.75184631 C27.12231651 7.2936985 27.12231651 7.2936985 27.12442017 8.86669922 C27.11902725 10.57249146 27.11902725 10.57249146 27.11352539 12.31274414 C27.11367142 13.50282578 27.11381744 14.69290741 27.1139679 15.91905212 C27.11338894 19.19163274 27.10835981 22.46417107 27.10139394 25.73674321 C27.09515967 29.15338665 27.09455654 32.57003083 27.09336853 35.98667908 C27.09025543 42.46069267 27.08204233 48.93468946 27.07201904 55.40869564 C27.06085725 62.7773792 27.05534729 70.14606355 27.05032361 77.51475346 C27.03985969 92.67651169 27.02226066 107.83825417 27 123 C26.67 123 26.34 123 26 123 C25.82528705 112.79179223 25.65917311 102.58346071 25.5 92.375 C25.48812275 91.61357193 25.4762455 90.85214386 25.46400833 90.06764221 C25.00397834 60.3758059 24.88919531 30.69565683 25 1 C17.41 1 9.82 1 2 1 C2.00523682 4.11493896 2.01047363 7.22987793 2.01586914 10.43920898 C2.03240295 20.70506419 2.04347038 30.97091997 2.05181217 41.23678493 C2.0570416 47.46393472 2.06414033 53.69107092 2.07543945 59.91821289 C2.08626621 65.92226865 2.09227638 71.92631129 2.09487724 77.93037605 C2.09673188 80.2266161 2.10035321 82.52285539 2.10573006 84.81908989 C2.11293768 88.02320814 2.11399106 91.2272715 2.11352539 94.43139648 C2.11712067 95.39092728 2.12071594 96.35045807 2.12442017 97.33906555 C2.1230455 98.20709808 2.12167084 99.07513062 2.12025452 99.96946716 C2.12117631 100.72810279 2.1220981 101.48673841 2.12304783 102.268363 C2 104 2 104 1 105 C-0.8438742 105.10438035 -2.69176014 105.13854808 -4.53857422 105.14526367 C-5.72425995 105.15164352 -6.90994568 105.15802338 -8.13156128 105.16459656 C-9.42619293 105.16570938 -10.72082458 105.1668222 -12.0546875 105.16796875 C-13.39454179 105.1711828 -14.73439572 105.17454698 -16.07424927 105.17805481 C-18.8939088 105.18405838 -21.71353765 105.18589386 -24.53320312 105.18530273 C-28.11826183 105.18520197 -31.70311861 105.19875861 -35.28812981 105.21607494 C-38.06282419 105.22729626 -40.8374717 105.22921873 -43.61218643 105.22869301 C-45.56779707 105.23042501 -47.52339307 105.2412167 -49.47897339 105.25224304 C-56.09378713 105.23552335 -62.2682481 104.82825848 -68.73928833 103.41719055 C-71.22179833 102.87542366 -71.22179833 102.87542366 -74.6875 103.125 C-79.02032822 102.96149705 -82.48974815 101.55991537 -86 99 C-86.33 98.01 -86.66 97.02 -87 96 C-89.01508358 95.26676204 -89.01508358 95.26676204 -91 95 C-90.505 94.01 -90.505 94.01 -90 93 C-89.20078125 93.39832031 -88.4015625 93.79664063 -87.578125 94.20703125 C-73.3299358 101.08027745 -60.26688304 103.10461339 -44.62890625 103.31640625 C-42.92921692 103.34438293 -42.92921692 103.34438293 -41.19519043 103.3729248 C-36.98436882 103.44094349 -32.77342579 103.50126973 -28.5625 103.5625 C-19.136875 103.706875 -9.71125 103.85125 0 104 C0 69.68 0 35.36 0 0 Z " fill="#B97434" transform="translate(1010,60)"/>
<path d="M0 0 C0.33 0 0.66 0 1 0 C1 37.62 1 75.24 1 114 C8.59 114 16.18 114 24 114 C24 81.33 24 48.66 24 15 C24.66 14.67 25.32 14.34 26 14 C26 47.66 26 81.32 26 116 C17.42 116 8.84 116 0 116 C-0.97507664 91.51861145 -1.11309887 67.04365788 -1.12338257 42.54634857 C-1.12500156 39.99754963 -1.1285652 37.4487596 -1.13256836 34.89996338 C-1.13844393 30.82701568 -1.13863058 26.7541055 -1.13431931 22.68115616 C-1.13332287 21.15611923 -1.13390938 19.63108036 -1.13615799 18.10604477 C-1.13871328 15.99513835 -1.1348958 13.88433624 -1.12939453 11.7734375 C-1.12859894 10.58153809 -1.12780334 9.38963867 -1.12698364 8.16162109 C-1.01272871 5.3169176 -0.65476828 2.76417097 0 0 Z " fill="#C97731" transform="translate(623,68)"/>
<path d="M0 0 C0.66 0 1.32 0 2 0 C2 19.14 2 38.28 2 58 C1.34 58 0.68 58 0 58 C0 59.98 0 61.96 0 64 C-0.33 64 -0.66 64 -1 64 C-1 61.69 -1 59.38 -1 57 C-7.7080101 57.09260222 -14.41567 57.19995011 -21.12329102 57.31738281 C-23.40351049 57.35558341 -25.68378839 57.39045162 -27.96411133 57.421875 C-31.24842154 57.46771924 -34.53233262 57.52568214 -37.81640625 57.5859375 C-38.83021866 57.59748871 -39.84403107 57.60903992 -40.88856506 57.62094116 C-45.1344137 57.70877725 -48.95493796 57.82890656 -53.01147461 59.15087891 C-53.99768799 59.43108887 -54.98390137 59.71129883 -56 60 C-56.99 59.34 -57.98 58.68 -59 58 C-58.67 56.35 -58.34 54.7 -58 53 C-56.25 52.375 -56.25 52.375 -54 52 C-53.09359772 52.47353409 -53.09359772 52.47353409 -52.16888428 52.95663452 C-49.62754474 54.17917367 -47.85886889 54.27537832 -45.04785156 54.31884766 C-43.57677948 54.34865219 -43.57677948 54.34865219 -42.07598877 54.37905884 C-41.02481873 54.39061005 -39.97364868 54.40216125 -38.890625 54.4140625 C-37.26770538 54.44311172 -37.26770538 54.44311172 -35.61199951 54.4727478 C-32.15807974 54.53250237 -28.70412656 54.57891297 -25.25 54.625 C-22.90753759 54.66318353 -20.56508916 54.70223548 -18.22265625 54.7421875 C-12.48189501 54.83820056 -6.74104947 54.92326027 -1 55 C-1 52.69 -1 50.38 -1 48 C-13.21 48 -25.42 48 -38 48 C-38 47.34 -38 46.68 -38 46 C-25.79 45.67 -13.58 45.34 -1 45 C-0.67 30.15 -0.34 15.3 0 0 Z M-55 55 C-55.33 55.66 -55.66 56.32 -56 57 C-55.01 56.67 -54.02 56.34 -53 56 C-53.66 55.67 -54.32 55.34 -55 55 Z " fill="#EBAB63" transform="translate(110,48)"/>
<path d="M0 0 C0.99 0 1.98 0 3 0 C3 23.76 3 47.52 3 72 C6.96 72 10.92 72 15 72 C15 72.66 15 73.32 15 74 C30.51 74 46.02 74 62 74 C62 74.33 62 74.66 62 75 C37.58 75 13.16 75 -12 75 C-12 74.67 -12 74.34 -12 74 C-6.555 73.01 -6.555 73.01 -1 72 C-0.67 48.24 -0.34 24.48 0 0 Z " fill="#E7A164" transform="translate(125,48)"/>
<path d="M0 0 C8.58 0 17.16 0 26 0 C26.0093457 2.22484131 26.01869141 4.44968262 26.02832031 6.74194336 C26.06218779 14.11814443 26.11779068 21.49406861 26.18390274 28.87004757 C26.22330067 33.33924194 26.25552662 37.80824155 26.27099609 42.27758789 C26.2862136 46.59613506 26.32074853 50.91414651 26.36830902 55.2324543 C26.38307055 56.87450041 26.391038 58.51662303 26.39188385 60.15873528 C26.40315598 71.07574607 26.86975362 80.22762402 34.75 88.5625 C35.67039062 89.55443359 35.67039062 89.55443359 36.609375 90.56640625 C37.29773438 91.27603516 37.29773438 91.27603516 38 92 C37.01 92.495 37.01 92.495 36 93 C31.60546875 89.38671875 31.60546875 89.38671875 30 88 C29.46246094 87.54496094 28.92492187 87.08992188 28.37109375 86.62109375 C26.64575104 84.58115864 26.34327267 82.98881291 25.875 80.375 C25.50902407 77.40059351 25.50902407 77.40059351 24 75 C23.90556665 72.69946165 23.88257872 70.39597827 23.88647461 68.09350586 C23.88632858 67.37159561 23.88618256 66.64968536 23.8860321 65.90589905 C23.88673131 63.50885053 23.89452405 61.11187877 23.90234375 58.71484375 C23.9042079 57.05717511 23.90563182 55.39950593 23.90663147 53.74183655 C23.91045688 49.37045786 23.92028735 44.99911219 23.93133545 40.62774658 C23.94154908 36.17045539 23.94612899 31.71315889 23.95117188 27.25585938 C23.9619096 18.50388938 23.97950658 9.7519526 24 1 C16.41 1 8.82 1 1 1 C1.33 28.06 1.66 55.12 2 83 C1.67 83 1.34 83 1 83 C-0.03990671 78.74460118 -0.13552919 74.62601097 -0.11352539 70.2722168 C-0.11367142 69.51070816 -0.11381744 68.74919952 -0.1139679 67.96461487 C-0.11327387 65.45945338 -0.1055054 62.95436718 -0.09765625 60.44921875 C-0.09579026 58.70758607 -0.09436721 56.96595286 -0.09336853 55.22431946 C-0.08955762 50.64914491 -0.07973953 46.0740023 -0.06866455 41.49884033 C-0.05841975 36.82670524 -0.05386434 32.15456497 -0.04882812 27.48242188 C-0.03811595 18.32159832 -0.02053072 9.16080682 0 0 Z " fill="#D07F3B" transform="translate(881,60)"/>
<path d="M0 0 C0.2165625 0.928125 0.2165625 0.928125 0.4375 1.875 C0.93152225 4.03258322 0.93152225 4.03258322 2 6 C-40.57 6 -83.14 6 -127 6 C-124.29320282 3.29320282 -122.83924768 3.72127945 -119.04882812 3.6652832 C-117.15643654 3.63070511 -117.15643654 3.63070511 -115.22581482 3.59542847 C-113.82763042 3.58018666 -112.42944193 3.56531562 -111.03125 3.55078125 C-109.57710284 3.52907121 -108.12296559 3.50668811 -106.6688385 3.4836731 C-102.75621796 3.42498302 -98.84355355 3.38016876 -94.93071365 3.3390007 C-92.50884798 3.31259646 -90.08705855 3.28239349 -87.66525269 3.25100708 C-59.75915882 2.89368944 -31.89705109 3.13270359 -4 4 C-3.67 3.34 -3.34 2.68 -3 2 C-3 2.99 -3 3.98 -3 5 C-2.34 5 -1.68 5 -1 5 C-0.67 3.35 -0.34 1.7 0 0 Z " fill="#F07613" transform="translate(361,176)"/>
<path d="M0 0 C4.82508419 1.62949315 8.71653192 4.3151802 12.890625 7.15625 C13.63584412 7.65918579 14.38106323 8.16212158 15.14886475 8.68029785 C16.71702775 9.74043312 18.28358794 10.8029427 19.84863281 11.86767578 C22.25120148 13.5008167 24.6603408 15.12390302 27.0703125 16.74609375 C28.59415286 17.7780512 30.11760419 18.81058339 31.640625 19.84375 C32.72491791 20.57350037 32.72491791 20.57350037 33.83111572 21.31799316 C38.88497861 24.76995723 38.88497861 24.76995723 40 27 C34.8447335 27.17533609 29.691266 27.30111957 24.53369141 27.38452148 C22.78598744 27.41934717 21.03848148 27.46682795 19.29150391 27.52807617 C6.89882501 27.95111943 -1.42412165 26.72519662 -12 20 C-13.18311768 19.29725952 -13.18311768 19.29725952 -14.39013672 18.58032227 C-16.25471723 17.45340498 -18.06811034 16.27908262 -19.875 15.0625 C-20.47957031 14.66482422 -21.08414063 14.26714844 -21.70703125 13.85742188 C-23.14255668 12.91179798 -24.57205251 11.95702863 -26 11 C-24.359375 10.29296875 -24.359375 10.29296875 -22 10 C-19.203125 11.36328125 -19.203125 11.36328125 -16.25 13.3125 C-14.77273438 14.26576172 -14.77273438 14.26576172 -13.265625 15.23828125 C-12.51796875 15.81964844 -11.7703125 16.40101563 -11 17 C-11 17.66 -11 18.32 -11 19 C-10.278125 19.103125 -9.55625 19.20625 -8.8125 19.3125 C-6 20 -6 20 -3.8059082 21.51098633 C-0.28220784 23.38091137 2.81142305 23.47595492 6.70703125 23.51171875 C7.43242599 23.52966995 8.15782074 23.54762115 8.90519714 23.56611633 C11.20757342 23.62002217 13.50974479 23.65405001 15.8125 23.6875 C17.37958568 23.72069068 18.9466444 23.75518196 20.51367188 23.79101562 C24.34229957 23.87573659 28.1708686 23.94264067 32 24 C28.7332861 20.62998742 25.97566126 18.87259568 21.70703125 17.02734375 C20 16 20 16 19 13 C17.35112604 12.29046713 15.68056658 11.63080757 14 11 C12.26202662 9.85631843 10.5534749 8.66684171 8.875 7.4375 C6.16499947 5.45648138 4.1961513 4.06538377 1 3 C0.67 2.01 0.34 1.02 0 0 Z " fill="#D37931" transform="translate(750,157)"/>
<path d="M0 0 C0.79846848 0.00561951 1.59693695 0.01123901 2.41960144 0.01702881 C3.26042267 0.01513046 4.1012439 0.01323212 4.96754456 0.01127625 C7.75723998 0.00756078 10.54667704 0.01828621 13.33634949 0.02947998 C15.27207407 0.0306718 17.20779924 0.03112494 19.14352417 0.03086853 C23.20645249 0.0324349 27.2692929 0.04073418 31.3321991 0.05413818 C36.53761074 0.07109425 41.74292537 0.07495353 46.9483614 0.074193 C50.94865849 0.07446518 54.94893442 0.07995462 58.94922447 0.08719444 C60.86814908 0.09037515 62.78707609 0.09234712 64.70600319 0.09308815 C67.39182729 0.09525996 70.07754933 0.10402343 72.76335144 0.11468506 C73.95194511 0.11400528 73.95194511 0.11400528 75.16455078 0.11331177 C78.99427347 0.13550387 82.56250032 0.33092153 86.28556824 1.25994873 C86.28556824 1.58994873 86.28556824 1.91994873 86.28556824 2.25994873 C84.59760887 2.27540993 84.59760887 2.27540993 82.87554932 2.29118347 C72.2948966 2.38874064 61.71430502 2.49145746 51.13375187 2.59928799 C45.69357438 2.65456342 40.25339156 2.70799067 34.81315613 2.75726318 C29.56766348 2.80483876 24.32223844 2.85717882 19.0768261 2.91288948 C17.0708782 2.93334399 15.06491174 2.95205182 13.05893135 2.96902275 C10.25948975 2.9929985 7.46017721 3.02306198 4.66081238 3.05462646 C3.82284119 3.06038193 2.98487 3.06613739 2.12150574 3.07206726 C-1.6010923 2.76621554 -1.6010923 2.76621554 -4.71443176 4.25994873 C-4.94870954 6.27589455 -5.127793 8.29842273 -5.27693176 10.32244873 C-5.40261536 11.97953857 -5.40261536 11.97953857 -5.53083801 13.67010498 C-5.59142395 14.52475342 -5.65200989 15.37940186 -5.71443176 16.25994873 C-6.04443176 16.25994873 -6.37443176 16.25994873 -6.71443176 16.25994873 C-6.93570274 13.96949505 -7.14108216 11.67750109 -7.33943176 9.38494873 C-7.45544739 8.10877686 -7.57146301 6.83260498 -7.69099426 5.51776123 C-7.70259583 3.90514404 -7.70259583 3.90514404 -7.71443176 2.25994873 C-5.15527179 -0.29921124 -3.48879014 0.02011352 0 0 Z " fill="#E87316" transform="translate(652.7144317626953,78.74005126953125)"/>
<path d="M0 0 C1.11181641 -0.00386719 1.11181641 -0.00386719 2.24609375 -0.0078125 C4.5625 0.125 4.5625 0.125 9.5625 1.125 C9.5625 41.715 9.5625 82.305 9.5625 124.125 C9.2325 124.125 8.9025 124.125 8.5625 124.125 C8.5625 83.865 8.5625 43.605 8.5625 2.125 C3.6125 2.125 -1.3375 2.125 -6.4375 2.125 C-7.0975 3.445 -7.7575 4.765 -8.4375 6.125 C-10.3203125 7.51171875 -10.3203125 7.51171875 -12.5625 8.8125 C-17.81674951 12.12514677 -21.53630004 16.34151231 -25.4375 21.125 C-25.4375 16.91273475 -23.06188852 15.14896665 -20.3125 12.25 C-19.6009375 11.47462891 -19.6009375 11.47462891 -18.875 10.68359375 C-13.19137026 4.58521265 -8.70619723 -0.03017746 0 0 Z " fill="#E8893E" transform="translate(1252.4375,58.875)"/>
<path d="M0 0 C0.99 0.66 1.98 1.32 3 2 C3.375 5 3.375 5 3 8 C2.01 8.66 1.02 9.32 0 10 C-0.47545884 12.13331595 -0.47545884 12.13331595 -0.43237305 14.63330078 C-0.45216721 15.59414581 -0.47196136 16.55499084 -0.49235535 17.54495239 C-0.50194023 19.10438065 -0.50194023 19.10438065 -0.51171875 20.6953125 C-0.52966995 21.75789276 -0.54762115 22.82047302 -0.56611633 23.91525269 C-0.62042002 27.31846107 -0.65417963 30.72152764 -0.6875 34.125 C-0.72065532 36.42840524 -0.75514329 38.73179172 -0.79101562 41.03515625 C-0.87615777 46.68997699 -0.94442232 52.34481564 -1 58 C-1.33 58 -1.66 58 -2 58 C-2.33 44.47 -2.66 30.94 -3 17 C-3.33 30.53 -3.66 44.06 -4 58 C-4.33 58 -4.66 58 -5 58 C-5.00586624 57.40531418 -5.01173248 56.81062836 -5.01777649 56.19792175 C-5.08163122 50.01729245 -5.16602993 43.8371877 -5.26245117 37.65698242 C-5.29573856 35.34943551 -5.32375849 33.04180643 -5.34643555 30.73413086 C-5.37991108 27.42005338 -5.43222398 24.10673155 -5.48828125 20.79296875 C-5.49786613 19.24128242 -5.49786613 19.24128242 -5.50764465 17.6582489 C-5.52743881 16.6974794 -5.54723297 15.7367099 -5.56762695 14.74682617 C-5.58428154 13.47774666 -5.58428154 13.47774666 -5.60127258 12.18302917 C-6.08634392 9.52726778 -7.04564429 8.78073971 -9 7 C-9.375 4.4375 -9.375 4.4375 -9 2 C-5.53001271 -0.31332486 -4.07490752 -0.33957563 0 0 Z M-4 3 C-4.33 3.99 -4.66 4.98 -5 6 C-3.68 6 -2.36 6 -1 6 C-1.33 5.01 -1.66 4.02 -2 3 C-2.66 3 -3.32 3 -4 3 Z " fill="#E19756" transform="translate(145,62)"/>
<path d="M0 0 C0.66 0 1.32 0 2 0 C2 1.32 2 2.64 2 4 C15.2 4 28.4 4 42 4 C42 4.66 42 5.32 42 6 C29.13 6.33 16.26 6.66 3 7 C2.67 24.16 2.34 41.32 2 59 C1.34 59 0.68 59 0 59 C0 39.53 0 20.06 0 0 Z " fill="#EAA55D" transform="translate(110,144)"/>
<path d="M0 0 C1.32 0 2.64 0 4 0 C2.72395841 2.75187312 1.35527063 4.94516965 -0.65234375 7.21484375 C-1.17650879 7.81272705 -1.70067383 8.41061035 -2.24072266 9.02661133 C-2.80065918 9.65720459 -3.3605957 10.28779785 -3.9375 10.9375 C-5.11147911 12.27273276 -6.28464099 13.60868445 -7.45703125 14.9453125 C-8.04822754 15.61852539 -8.63942383 16.29173828 -9.24853516 16.98535156 C-12.38602379 20.59429444 -15.44393994 24.27149318 -18.48413086 27.96264648 C-20.54945735 30.43652519 -22.2914 32.19426667 -25 34 C-30.29977145 34.42740092 -33.74748241 34.52351458 -38 31 C-39.8125 28.3125 -39.8125 28.3125 -41 26 C-37.83884224 27.36983503 -37.0072908 27.9890638 -35 31 C-32.04230823 31.50010524 -32.04230823 31.50010524 -29 31 C-27.31201173 29.56249809 -27.31201173 29.56249809 -26 28 C-25.01 28 -24.02 28 -23 28 C-22.938125 27.278125 -22.87625 26.55625 -22.8125 25.8125 C-21.7446249 22.11600926 -19.89180184 20.46861132 -17 18 C-16.34 18 -15.68 18 -15 18 C-15 17.01 -15 16.02 -15 15 C-13.68 15 -12.36 15 -11 15 C-10.34 13.68 -9.68 12.36 -9 11 C-8.34 11 -7.68 11 -7 11 C-6.71125 10.236875 -6.4225 9.47375 -6.125 8.6875 C-5 6 -5 6 -3 3 C-2.34 3 -1.68 3 -1 3 C-0.67 2.01 -0.34 1.02 0 0 Z " fill="#EF730B" transform="translate(1199,150)"/>
<path d="M0 0 C0.66 0 1.32 0 2 0 C2 16.5 2 33 2 50 C3.65 50.33 5.3 50.66 7 51 C8 52 8 52 8.25 54.4375 C8.1675 55.283125 8.085 56.12875 8 57 C4.30513897 59.46324069 2.36706908 59.38991688 -2 59 C-4 57.8125 -4 57.8125 -5 56 C-4.875 53.4375 -4.875 53.4375 -4 51 C-3.01 50.34 -2.02 49.68 -1 49 C-0.52427183 46.82584957 -0.52427183 46.82584957 -0.56762695 44.27490234 C-0.54783279 43.29403656 -0.52803864 42.31317078 -0.50764465 41.30258179 C-0.50125473 40.24108917 -0.49486481 39.17959656 -0.48828125 38.0859375 C-0.47033005 37.00116119 -0.45237885 35.91638489 -0.43388367 34.79873657 C-0.3795769 31.32419761 -0.34581932 27.84979758 -0.3125 24.375 C-0.27934496 22.02341808 -0.24485702 19.67185454 -0.20898438 17.3203125 C-0.12383894 11.54699959 -0.05557568 5.77366913 0 0 Z M0 53 C0 53.99 0 54.98 0 56 C0.99 56 1.98 56 3 56 C3 55.01 3 54.02 3 53 C2.01 53 1.02 53 0 53 Z " fill="#ED9E54" transform="translate(78,123)"/>
<path d="M0 0 C2.03515625 0.4609375 2.03515625 0.4609375 3.76391602 2.45605469 C6.75112303 5.09293999 8.46731819 4.97124074 12.41015625 5 C13.6425 5.02320312 14.87484375 5.04640625 16.14453125 5.0703125 C18.07039063 5.07804687 18.07039063 5.07804687 20.03515625 5.0859375 C22.57692026 5.11145722 25.11862006 5.14496383 27.66015625 5.1875 C28.78679688 5.19346191 29.9134375 5.19942383 31.07421875 5.20556641 C34.03515625 5.4609375 34.03515625 5.4609375 38.03515625 7.4609375 C27.14515625 7.4609375 16.25515625 7.4609375 5.03515625 7.4609375 C4.37515625 8.7809375 3.71515625 10.1009375 3.03515625 11.4609375 C-0.31966963 12.50466111 -2.3372051 12.64637619 -5.71484375 11.6484375 C-7.96484375 10.4609375 -7.96484375 10.4609375 -9.96484375 8.4609375 C-9.77734375 5.4609375 -9.77734375 5.4609375 -8.96484375 2.4609375 C-5.75047846 0.31802731 -3.79057766 0.16067959 0 0 Z M-3.96484375 3.4609375 C-4.29484375 4.7809375 -4.62484375 6.1009375 -4.96484375 7.4609375 C-2.48984375 7.9559375 -2.48984375 7.9559375 0.03515625 8.4609375 C0.69515625 7.4709375 1.35515625 6.4809375 2.03515625 5.4609375 C1.37515625 4.8009375 0.71515625 4.1409375 0.03515625 3.4609375 C-1.28484375 3.4609375 -2.60484375 3.4609375 -3.96484375 3.4609375 Z " fill="#E8AA72" transform="translate(24.96484375,115.5390625)"/>
<path d="M0 0 C6.75 0.75 6.75 0.75 9 3 C14.7563155 5.64410976 20.53956367 6.42314121 26.8125 6.7890625 C29 7 29 7 30 8 C36.83732017 8.96925364 43.59831558 9.19030597 50.49609375 9.28125 C52.13909706 9.30838829 52.13909706 9.30838829 53.81529236 9.33607483 C56.15106447 9.37440977 58.48686663 9.41094994 60.82269287 9.4458313 C66.89366791 9.53680623 72.96440477 9.64138793 79.03515625 9.74609375 C80.23414551 9.76655258 81.43313477 9.78701141 82.66845703 9.80809021 C92.90632272 9.98754896 103.1405619 10.24456352 113.375 10.5625 C114.45248001 10.59585449 114.45248001 10.59585449 115.55172729 10.62988281 C119.36796703 10.74887494 123.18405099 10.87203363 127 11 C127 11.33 127 11.66 127 12 C117.84467145 12.0234244 108.6893536 12.04106545 99.53400135 12.05181217 C95.28038773 12.05697641 91.02679498 12.06395274 86.77319336 12.07543945 C14.97332871 12.26386923 14.97332871 12.26386923 0 0 Z " fill="#B86726" transform="translate(907,172)"/>
<path d="M0 0 C0.99 0.33 1.98 0.66 3 1 C1.90214454 4.29356639 0.33364503 5.53337152 -2.5 7.3125 C-6.42161009 9.94038305 -6.93420066 12.40886437 -8 17 C-10.58885901 20.74938201 -13.74464918 23.82404798 -17 27 C-17.825 27.928125 -18.65 28.85625 -19.5 29.8125 C-22 32 -22 32 -24.5625 32.5625 C-27.74080671 31.82904461 -28.99401551 30.52605454 -31 28 C-31 27.34 -31 26.68 -31 26 C-31.78375 25.773125 -32.5675 25.54625 -33.375 25.3125 C-36 24 -36 24 -37.3125 21.375 C-37.539375 20.59125 -37.76625 19.8075 -38 19 C-38.66 19 -39.32 19 -40 19 C-41.06775224 17.03533587 -42.06553465 15.03144641 -43 13 C-42.67 12.34 -42.34 11.68 -42 11 C-41.19175781 11.95261719 -40.38351562 12.90523437 -39.55078125 13.88671875 C-38.47146595 15.15374106 -37.39203259 16.42066281 -36.3125 17.6875 C-35.51682617 18.62625977 -35.51682617 18.62625977 -34.70507812 19.58398438 C-31.60474405 23.21689118 -28.4278965 26.67385924 -25 30 C-19.49403928 24.10835604 -14.40744325 18.06009441 -9.54394531 11.63720703 C-6.49959134 7.62178837 -3.335952 3.77489305 0 0 Z " fill="#E38129" transform="translate(1195,118)"/>
<path d="M0 0 C0.33 0 0.66 0 1 0 C1 2.31 1 4.62 1 7 C7.86873269 6.90750772 14.73711962 6.80017311 21.60546875 6.68261719 C23.94102748 6.64438246 26.276644 6.60952005 28.61230469 6.578125 C31.97351705 6.5323553 35.33433355 6.47437964 38.6953125 6.4140625 C40.25658371 6.39673569 40.25658371 6.39673569 41.84939575 6.37905884 C47.02432153 6.27419653 51.09477198 5.78486382 56 4 C58.875 5.1875 58.875 5.1875 61 7 C61 7.99 61 8.98 61 10 C58 12 58 12 55.5 11.6875 C53.65095738 11.17901328 51.81927613 10.60642538 50 10 C48.38975487 9.88528988 46.77544145 9.8237226 45.16137695 9.79467773 C44.1805867 9.77473251 43.19979645 9.75478729 42.18928528 9.73423767 C41.13295395 9.71752518 40.07662262 9.70081268 38.98828125 9.68359375 C37.90491989 9.66281265 36.82155853 9.64203156 35.70536804 9.62062073 C32.24114384 9.55518203 28.7768432 9.49626647 25.3125 9.4375 C22.96548685 9.39430939 20.61848147 9.35069493 18.27148438 9.30664062 C12.51440396 9.19950643 6.75724733 9.09772936 1 9 C1 11.31 1 13.62 1 16 C0.67 16 0.34 16 0 16 C0 10.72 0 5.44 0 0 Z M54 7 C54.33 7.66 54.66 8.32 55 9 C55.66 9 56.32 9 57 9 C57 8.34 57 7.68 57 7 C56.01 7 55.02 7 54 7 Z " fill="#EAA372" transform="translate(112,132)"/>
<path d="M0 0 C7.26 0 14.52 0 22 0 C22.022817 10.40735803 22.04106628 20.81469878 22.05181217 31.22207642 C22.05697605 36.05740303 22.06395168 40.89271129 22.07543945 45.72802734 C22.17053406 86.79344127 22.17053406 86.79344127 21 107 C20.67 107 20.34 107 20 107 C19.83276446 101.89154206 19.67216714 96.78293596 19.51782227 91.67407227 C19.46432738 89.93475677 19.40899245 88.19549688 19.35180664 86.45629883 C19.27010373 83.96187334 19.19493836 81.46732517 19.12109375 78.97265625 C19.09405869 78.19036148 19.06702362 77.40806671 19.03916931 76.60206604 C18.98711614 74.73539067 18.98812975 72.86736326 19 71 C19.33 70.67 19.66 70.34 20 70 C20.09881245 68.29210719 20.12798966 66.58013307 20.12939453 64.86938477 C20.13254669 63.77477432 20.13569885 62.68016388 20.13894653 61.55238342 C20.1369223 60.36076096 20.13489807 59.16913849 20.1328125 57.94140625 C20.13376923 56.72678207 20.13472595 55.5121579 20.13571167 54.26072693 C20.13639377 51.68578032 20.13453741 49.110832 20.13037109 46.53588867 C20.12502789 42.58313142 20.13031274 38.63048804 20.13671875 34.67773438 C20.13605788 32.18229141 20.13477654 29.68684853 20.1328125 27.19140625 C20.13483673 26.00180801 20.13686096 24.81220978 20.13894653 23.58656311 C20.13579437 22.48880051 20.13264221 21.3910379 20.12939453 20.26000977 C20.12859894 19.2903981 20.12780334 18.32078644 20.12698364 17.3217926 C20.15296272 14.97450781 20.15296272 14.97450781 19 13 C19.33 12.34 19.66 11.68 20 11 C20.0689472 9.62657169 20.08467708 8.24997898 20.0625 6.875 C20.041875 5.59625 20.02125 4.3175 20 3 C17.76352369 1.88176185 16.35108471 1.80603939 13.8671875 1.68359375 C13.06152344 1.64169922 12.25585938 1.59980469 11.42578125 1.55664062 C10.58402344 1.51732422 9.74226562 1.47800781 8.875 1.4375 C8.02550781 1.39431641 7.17601562 1.35113281 6.30078125 1.30664062 C4.20071777 1.20045764 2.10038052 1.09971503 0 1 C0 0.67 0 0.34 0 0 Z " fill="#ED7C19" transform="translate(824,61)"/>
<path d="M0 0 C0.33 0 0.66 0 1 0 C1.02888146 3.31248187 1.04675799 6.62493167 1.0625 9.9375 C1.07087891 10.88302734 1.07925781 11.82855469 1.08789062 12.80273438 C1.09111328 13.70185547 1.09433594 14.60097656 1.09765625 15.52734375 C1.10289307 16.35999756 1.10812988 17.19265137 1.11352539 18.05053711 C1 20 1 20 0 21 C-1.8438742 21.10438035 -3.69176014 21.13854808 -5.53857422 21.14526367 C-6.72425995 21.15164352 -7.90994568 21.15802338 -9.13156128 21.16459656 C-10.42619293 21.16570938 -11.72082458 21.1668222 -13.0546875 21.16796875 C-14.39454179 21.1711828 -15.73439572 21.17454698 -17.07424927 21.17805481 C-19.8939088 21.18405838 -22.71353765 21.18589386 -25.53320312 21.18530273 C-29.11826183 21.18520197 -32.70311861 21.19875861 -36.28812981 21.21607494 C-39.06282419 21.22729626 -41.8374717 21.22921873 -44.61218643 21.22869301 C-46.56779707 21.23042501 -48.52339307 21.2412167 -50.47897339 21.25224304 C-57.09378713 21.23552335 -63.2682481 20.82825848 -69.73928833 19.41719055 C-72.22179833 18.87542366 -72.22179833 18.87542366 -75.6875 19.125 C-80.02032822 18.96149705 -83.48974815 17.55991537 -87 15 C-87.33 14.01 -87.66 13.02 -88 12 C-90.01508358 11.26676204 -90.01508358 11.26676204 -92 11 C-91.67 10.34 -91.34 9.68 -91 9 C-90.20078125 9.39832031 -89.4015625 9.79664063 -88.578125 10.20703125 C-74.33027057 17.08011596 -61.26614989 19.10437648 -45.62890625 19.31640625 C-44.35144028 19.33718735 -43.0739743 19.35796844 -41.75779724 19.37937927 C-38.38281381 19.43349454 -35.00781821 19.48380121 -31.63275146 19.53222656 C-28.18024692 19.58271279 -24.72782402 19.6382564 -21.27539062 19.69335938 C-14.51699237 19.80020814 -7.75853251 19.90203222 -1 20 C-1.00523682 19.42967041 -1.01047363 18.85934082 -1.01586914 18.27172852 C-1.03658221 15.70199677 -1.0496419 13.13228253 -1.0625 10.5625 C-1.07087891 9.66466797 -1.07925781 8.76683594 -1.08789062 7.84179688 C-1.09111328 6.98779297 -1.09433594 6.13378906 -1.09765625 5.25390625 C-1.10289307 4.46314697 -1.10812988 3.6723877 -1.11352539 2.85766602 C-1 1 -1 1 0 0 Z " fill="#D8843C" transform="translate(1011,144)"/>
<path d="M0 0 C2.99397042 8.11796386 3.33551328 15.37606615 3 24 C2.67 24 2.34 24 2 24 C1.88785156 22.35451172 1.88785156 22.35451172 1.7734375 20.67578125 C1.64205814 19.22122401 1.50916545 17.7668029 1.375 16.3125 C1.30732422 15.2306543 1.30732422 15.2306543 1.23828125 14.12695312 C0.83585029 10.12093589 0.25903263 7.74936334 -2.8359375 5.04296875 C-6.75675387 2.51137991 -9.60025923 1.8830746 -14.20147705 1.84178162 C-15.03156281 1.8319928 -15.86164856 1.82220398 -16.71688843 1.81211853 C-17.6188797 1.80636307 -18.52087097 1.8006076 -19.45019531 1.79467773 C-20.88484634 1.77982834 -20.88484634 1.77982834 -22.34848022 1.76467896 C-25.50833668 1.7331035 -28.66820816 1.70832208 -31.828125 1.68359375 C-34.01959625 1.66302082 -36.21106356 1.64202425 -38.40252686 1.62062073 C-44.1695639 1.56543515 -49.93663655 1.51601033 -55.70373535 1.46777344 C-61.58898079 1.4175328 -67.47417454 1.3618601 -73.359375 1.30664062 C-84.90620584 1.19910201 -96.45308157 1.09764745 -108 1 C-108 0.67 -108 0.34 -108 0 C-95.83813448 -0.15445765 -83.67620973 -0.30263013 -71.51417255 -0.4429636 C-65.8657699 -0.50833209 -60.2174091 -0.57579744 -54.5690918 -0.64819336 C-49.10967746 -0.7180886 -43.65022216 -0.78229488 -38.19069481 -0.84269524 C-36.11647333 -0.86661617 -34.04227371 -0.89252494 -31.96810341 -0.92053413 C-21.2528943 -1.06393719 -10.66988774 -1.1503169 0 0 Z " fill="#D57D38" transform="translate(757,81)"/>
<path d="M0 0 C0.75 1.5625 0.75 1.5625 1 4 C-0.13084437 6.50286409 -1.52139516 8.67007722 -3 11 C-3.99 11 -4.98 11 -6 11 C-6 11.66 -6 12.32 -6 13 C-14.73041822 16.81323557 -23.39255391 16.3829681 -32.72265625 16.29296875 C-34.43614834 16.28736498 -36.14964528 16.28309858 -37.86314392 16.28010559 C-42.34631913 16.26871821 -46.8291971 16.23930449 -51.31225586 16.20599365 C-55.89758281 16.17516023 -60.48295836 16.16157204 -65.06835938 16.14648438 C-74.04572371 16.11442813 -83.02279049 16.061711 -92 16 C-92 22.6 -92 29.2 -92 36 C-86.72 36 -81.44 36 -76 36 C-76 36.33 -76 36.66 -76 37 C-81.61 37 -87.22 37 -93 37 C-93 29.74 -93 22.48 -93 15 C-90.77515869 14.98541748 -88.55031738 14.97083496 -86.25805664 14.95581055 C-78.88188437 14.90532423 -71.50592009 14.83870485 -64.12995243 14.76428509 C-59.6607909 14.71968353 -55.19171839 14.68040529 -50.72241211 14.65356445 C-46.40393703 14.62742905 -42.08580639 14.58695537 -37.7675457 14.53681374 C-36.12549585 14.52021392 -34.48338651 14.50865698 -32.84126472 14.50238609 C-16.87312978 14.45965606 -16.87312978 14.45965606 -3.375 6.5625 C-1.60338699 4.5493034 -0.683966 2.58387157 0 0 Z " fill="#CB8147" transform="translate(758,106)"/>
<path d="M0 0 C3.53333523 0.11712713 5.49832617 0.81082617 8.0625 3.375 C7.7325 5.685 7.4025 7.995 7.0625 10.375 C2.9984666 12.4070167 0.42547288 12.73842902 -3.9375 11.375 C-4.68797607 10.54524658 -5.43845215 9.71549316 -6.21166992 8.8605957 C-9.55189669 5.81475167 -11.09707846 5.72897838 -15.55078125 5.66796875 C-16.79794922 5.63896484 -18.04511719 5.60996094 -19.33007812 5.58007812 C-20.62365234 5.57427734 -21.91722656 5.56847656 -23.25 5.5625 C-24.56291016 5.53736328 -25.87582031 5.51222656 -27.22851562 5.48632812 C-30.46514489 5.42748032 -33.70042218 5.39118063 -36.9375 5.375 C-36.9375 5.045 -36.9375 4.715 -36.9375 4.375 C-36.04442139 4.36041748 -35.15134277 4.34583496 -34.23120117 4.33081055 C-30.91532722 4.26972923 -27.60028101 4.19557522 -24.28491211 4.11254883 C-22.85045372 4.07930999 -21.41586487 4.05127465 -19.98120117 4.02856445 C-17.91789193 3.99499729 -15.85577697 3.94268587 -13.79296875 3.88671875 C-11.93128052 3.84744263 -11.93128052 3.84744263 -10.03198242 3.80737305 C-5.4352362 3.16509789 -4.78663991 0.45587047 0 0 Z M-2.9375 4.375 C-2.6075 5.695 -2.2775 7.015 -1.9375 8.375 C-0.2875 8.375 1.3625 8.375 3.0625 8.375 C3.0625 7.055 3.0625 5.735 3.0625 4.375 C0.01336772 3.36388907 0.01336772 3.36388907 -2.9375 4.375 Z " fill="#C6773C" transform="translate(196.9375,115.625)"/>
<path d="M0 0 C0.33 0 0.66 0 1 0 C1 26.07 1 52.14 1 79 C1.66 79 2.32 79 3 79 C3 61.84 3 44.68 3 27 C3.33 27 3.66 27 4 27 C4 45.48 4 63.96 4 83 C2.68 83 1.36 83 0 83 C0 55.61 0 28.22 0 0 Z " fill="#D89D6A" transform="translate(109,124)"/>
<path d="M0 0 C2.43933928 0.32056435 2.43933928 0.32056435 4.97387695 0.31884766 C6.41480461 0.34865219 6.41480461 0.34865219 7.88484192 0.37905884 C8.9089769 0.39061005 9.93311188 0.40216125 10.98828125 0.4140625 C12.04661667 0.43342865 13.10495209 0.4527948 14.19535828 0.4727478 C17.56765748 0.53241248 20.93999106 0.57887693 24.3125 0.625 C26.60222823 0.66319181 28.89194228 0.70224424 31.18164062 0.7421875 C36.78763431 0.83810326 42.39371376 0.92318911 48 1 C48 1.66 48 2.32 48 3 C47.14008705 3.01213028 47.14008705 3.01213028 46.26280212 3.02450562 C40.27630066 3.11080861 34.29012054 3.21032246 28.30395508 3.31738281 C26.0722393 3.35557883 23.84046393 3.39044781 21.60864258 3.421875 C18.39382686 3.46772929 15.17941808 3.52569037 11.96484375 3.5859375 C10.97290512 3.59748871 9.98096649 3.60903992 8.95896912 3.62094116 C4.76572632 3.7095357 1.00781846 3.84532856 -2.99780273 5.15087891 C-3.98852783 5.43108887 -4.97925293 5.71129883 -6 6 C-6.99 5.34 -7.98 4.68 -9 4 C-8.67 2.35 -8.34 0.7 -8 -1 C-4.29083848 -2.23638717 -3.50341157 -1.44554317 0 0 Z M-5 1 C-5.33 1.66 -5.66 2.32 -6 3 C-5.01 2.67 -4.02 2.34 -3 2 C-3.66 1.67 -4.32 1.34 -5 1 Z " fill="#E9B986" transform="translate(60,102)"/>
<path d="M0 0 C1.44008669 -0.02824934 2.88019025 -0.05565724 4.3203125 -0.08203125 C5.54685547 -0.11232422 6.77339844 -0.14261719 8.03710938 -0.17382812 C11.1015625 0.13671875 11.1015625 0.13671875 15.1015625 3.13671875 C-6.6784375 3.13671875 -28.4584375 3.13671875 -50.8984375 3.13671875 C-50.5684375 2.47671875 -50.2384375 1.81671875 -49.8984375 1.13671875 C-43.7827683 0.99191449 -37.66704732 0.84961597 -31.55126953 0.70947266 C-29.47801199 0.66163072 -27.40476916 0.61314661 -25.33154297 0.56396484 C-19.42079711 0.42398101 -13.51006387 0.29826841 -7.59863281 0.19091797 C-5.0652383 0.14006683 -2.53288302 0.07137083 0 0 Z " fill="#E37419" transform="translate(584.8984375,75.86328125)"/>
<path d="M0 0 C25.41 0 50.82 0 77 0 C77 0.33 77 0.66 77 1 C51.92 1 26.84 1 1 1 C1 6.94 1 12.88 1 19 C3.475 18.7525 5.95 18.505 8.5 18.25 C15.09741305 17.73912511 19.52530075 17.86604342 25 22 C25.69140625 24.14453125 25.69140625 24.14453125 26 26 C23.37547559 25.02517665 21.13513008 24.09596194 18.84375 22.46875 C15.08458253 20.52720197 11.85573219 20.44388669 7.6875 20.3125 C5.150625 20.209375 2.61375 20.10625 0 20 C0 13.4 0 6.8 0 0 Z " fill="#E47E2A" transform="translate(666,122)"/>
<path d="M0 0 C2.31 0 4.62 0 7 0 C6.0409375 0.433125 6.0409375 0.433125 5.0625 0.875 C2.84793921 1.82823451 2.84793921 1.82823451 2 4 C1.8957888 5.55817034 1.85348531 7.12067405 1.84178162 8.68228149 C1.8319928 9.66948685 1.82220398 10.6566922 1.81211853 11.67381287 C1.80636307 12.76065872 1.8006076 13.84750458 1.79467773 14.96728516 C1.78477814 16.10874496 1.77487854 17.25020477 1.76467896 18.42625427 C1.73299335 22.21383564 1.70827862 26.00142956 1.68359375 29.7890625 C1.66303032 32.40937636 1.64203402 35.02968685 1.62062073 37.6499939 C1.57067646 43.85123767 1.52574408 50.05250731 1.48259836 56.2538017 C1.43324079 63.31299479 1.37831718 70.3721411 1.32291877 77.43128896 C1.20907212 91.95414836 1.10223893 106.47705431 1 121 C0.67 121 0.34 121 0 121 C0 81.07 0 41.14 0 0 Z " fill="#F08427" transform="translate(226,61)"/>
<path d="M0 0 C1.32 0 2.64 0 4 0 C2.71076019 2.78823237 1.31380469 4.98996602 -0.72265625 7.28515625 C-1.25737549 7.89351318 -1.79209473 8.50187012 -2.34301758 9.12866211 C-3.19416138 10.08591187 -3.19416138 10.08591187 -4.0625 11.0625 C-9.51631821 17.26841182 -14.82028663 23.56216504 -20 30 C-20 27.29745539 -19.96569331 25.49470772 -19 23 C-18.360625 22.71125 -17.72125 22.4225 -17.0625 22.125 C-14.65296263 21.09494127 -14.65296263 21.09494127 -13.75 17.875 C-13.5025 16.92625 -13.255 15.9775 -13 15 C-12.34 15 -11.68 15 -11 15 C-10.34 13.68 -9.68 12.36 -9 11 C-8.34 11 -7.68 11 -7 11 C-6.71125 10.236875 -6.4225 9.47375 -6.125 8.6875 C-5 6 -5 6 -3 3 C-2.34 3 -1.68 3 -1 3 C-0.67 2.01 -0.34 1.02 0 0 Z " fill="#DC741F" transform="translate(1199,150)"/>
<path d="M0 0 C3.4375 0.75 3.4375 0.75 5.4375 2.75 C5.75 5.25 5.75 5.25 5.4375 7.75 C1.74263897 10.21324069 -0.19543092 10.13991688 -4.5625 9.75 C-6.5625 8.5625 -6.5625 8.5625 -7.5625 6.75 C-7.4375 4.1875 -7.4375 4.1875 -6.5625 1.75 C-3.5625 -0.25 -3.5625 -0.25 0 0 Z M-2.5625 3.75 C-2.5625 4.74 -2.5625 5.73 -2.5625 6.75 C-1.5725 6.75 -0.5825 6.75 0.4375 6.75 C0.4375 5.76 0.4375 4.77 0.4375 3.75 C-0.5525 3.75 -1.5425 3.75 -2.5625 3.75 Z " fill="#DD833C" transform="translate(80.5625,172.25)"/>
<path d="M0 0 C0.33 0 0.66 0 1 0 C1.33 14.52 1.66 29.04 2 44 C0.68 44 -0.64 44 -2 44 C-1.88207974 37.89430893 -1.75785627 31.78879181 -1.62768555 25.68334961 C-1.58426666 23.60460943 -1.54259688 21.52583197 -1.50268555 19.44702148 C-1.44515079 16.46586855 -1.38140881 13.48490451 -1.31640625 10.50390625 C-1.29969376 9.56849503 -1.28298126 8.6330838 -1.26576233 7.66932678 C-1.24581711 6.80850998 -1.22587189 5.94769318 -1.20532227 5.06079102 C-1.18977798 4.29912125 -1.1742337 3.53745148 -1.15821838 2.75270081 C-1 1 -1 1 0 0 Z " fill="#EC9446" transform="translate(142,78)"/>
<path d="M0 0 C5.25348591 4.54355538 7.69936255 9.20854725 8.25317383 16.19287109 C8.33092019 19.8623983 8.31075182 23.51771011 8.25 27.1875 C8.24484375 28.44498047 8.2396875 29.70246094 8.234375 30.99804688 C8.14887458 41.03900302 8.14887458 41.03900302 7 46 C6.67 46 6.34 46 6 46 C6.01571045 44.85168701 6.01571045 44.85168701 6.03173828 43.68017578 C6.07369304 40.16181818 6.09945063 36.64351348 6.125 33.125 C6.14175781 31.92101562 6.15851562 30.71703125 6.17578125 29.4765625 C6.26028382 19.08623285 6.26028382 19.08623285 4 9 C3.34 8.67 2.68 8.34 2 8 C-0.1519437 4.77208445 -0.20086443 3.71599191 0 0 Z " fill="#BE763F" transform="translate(779,69)"/>
<path d="M0 0 C-0.33 1.32 -0.66 2.64 -1 4 C-1 3.01 -1 2.02 -1 1 C-5.95 1 -10.9 1 -16 1 C-16.66 2.32 -17.32 3.64 -18 5 C-19.8828125 6.38671875 -19.8828125 6.38671875 -22.125 7.6875 C-27.37924951 11.00014677 -31.09880004 15.21651231 -35 20 C-35 15.78773475 -32.62438852 14.02396665 -29.875 11.125 C-29.1634375 10.34962891 -29.1634375 10.34962891 -28.4375 9.55859375 C-19.9233999 0.42319445 -12.63398044 -3.26038205 0 0 Z " fill="#CD7932" transform="translate(1262,60)"/>
<path d="M0 0 C4.41079226 -0.04980916 8.82143112 -0.08591133 13.23242188 -0.10986328 C14.72984676 -0.11985901 16.22725244 -0.13346014 17.72460938 -0.15087891 C19.88937143 -0.17541288 22.05387323 -0.18654744 24.21875 -0.1953125 C25.51748047 -0.20578613 26.81621094 -0.21625977 28.15429688 -0.22705078 C32.38290298 0.02260664 35.93232287 0.85646042 40 2 C40 2.66 40 3.32 40 4 C35.74974029 3.73625432 31.49967431 3.4696153 27.24975586 3.20043945 C25.80774699 3.10949906 24.36569037 3.01931228 22.92358398 2.92993164 C15.26009965 2.45445029 7.62320869 1.94544823 0 1 C0 0.67 0 0.34 0 0 Z " fill="#E77619" transform="translate(728,61)"/>
<path d="M0 0 C1.65 0.33 3.3 0.66 5 1 C0.45084342 7.38665904 -4.52797418 13.37821347 -10 19 C-10.33 19 -10.66 19 -11 19 C-11 17.02 -11 15.04 -11 13 C-10.01 12.67 -9.02 12.34 -8 12 C-7.9175 11.21625 -7.835 10.4325 -7.75 9.625 C-7 7 -7 7 -5.125 5.875 C-4.42375 5.58625 -3.7225 5.2975 -3 5 C-1.2488427 3.5833253 -1.2488427 3.5833253 0 2 C0 1.34 0 0.68 0 0 Z " fill="#E17824" transform="translate(1215,130)"/>
<path d="M0 0 C3.59527627 3.49880195 6.86455045 7.12489576 10.0625 11 C10.89910156 12.010625 11.73570313 13.02125 12.59765625 14.0625 C14.74999096 16.69429789 16.88272361 19.33995761 19 22 C18.67 22.66 18.34 23.32 18 24 C13.89063771 21.75852966 11.84768791 20.19847057 9.9375 15.875 C8.49794554 12.54203884 8.49794554 12.54203884 5.375 10.625 C4.59125 10.41875 3.8075 10.2125 3 10 C-0.00617269 6.99382731 0.40414684 4.17618402 0 0 Z " fill="#DC7A2C" transform="translate(1121,90)"/>
<path d="M0 0 C6.4 -0.36923077 6.4 -0.36923077 9.4375 1.5 C9.953125 1.995 10.46875 2.49 11 3 C10.67 5.31 10.34 7.62 10 10 C5.92630576 12.03684712 3.41062136 12.0257259 -1 11 C1.31856917 9.45428722 3.50638429 8.20381448 6 7 C5.67 6.01 5.34 5.02 5 4 C3.35 3.67 1.7 3.34 0 3 C0 2.01 0 1.02 0 0 Z " fill="#E08C4B" transform="translate(194,116)"/>
<path d="M0 0 C1 3 1 3 0.1015625 4.98046875 C-5.87433081 13.91269023 -13.56762287 21.55392597 -24 25 C-24.99 24.67 -25.98 24.34 -27 24 C-26.05125 23.7525 -25.1025 23.505 -24.125 23.25 C-20.9019038 22.37964651 -20.9019038 22.37964651 -20.125 20.0625 C-18.50284234 17.0885443 -16.1693937 16.93648858 -13.10546875 15.8984375 C-9.59033321 14.39847243 -7.1036908 12.18119096 -5 9 C-4.03665164 5.27811619 -4.03665164 5.27811619 -4 2 C-3.01 2 -2.02 2 -1 2 C-0.67 1.34 -0.34 0.68 0 0 Z " fill="#D28040" transform="translate(784,115)"/>
<path d="M0 0 C0.33 0 0.66 0 1 0 C1.3607927 2.81179768 1.7139278 5.62418499 2.0625 8.4375 C2.16626953 9.23994141 2.27003906 10.04238281 2.37695312 10.86914062 C2.62644343 12.90807868 2.81780318 14.95395061 3 17 C2.67 17.33 2.34 17.66 2 18 C1.83982834 20.80976518 1.74049466 23.59773596 1.68359375 26.41015625 C1.66281265 27.25219101 1.64203156 28.09422577 1.62062073 28.96177673 C1.55503188 31.66193179 1.49619724 34.36218717 1.4375 37.0625 C1.39432363 38.88868241 1.35070964 40.71485454 1.30664062 42.54101562 C1.19934106 47.02723992 1.09810034 51.5135655 1 56 C0.67 56 0.34 56 0 56 C0 37.52 0 19.04 0 0 Z " fill="#EF7E1D" transform="translate(531,80)"/>
<path d="M0 0 C0 1.98 0 3.96 0 6 C-7.26 6 -14.52 6 -22 6 C-22 5.67 -22 5.34 -22 5 C-19.69 4.34 -17.38 3.68 -15 3 C-15 3.66 -15 4.32 -15 5 C-14.360625 4.54625 -13.72125 4.0925 -13.0625 3.625 C-9.18164694 1.56577185 -4.47172474 0 0 0 Z " fill="#EF7713" transform="translate(647,176)"/>
<path d="M0 0 C1.56234375 0.70576172 1.56234375 0.70576172 3.15625 1.42578125 C13.01224177 5.75000647 22.34836109 8.49472129 33 10 C33 10.33 33 10.66 33 11 C12.97405063 11.3778481 12.97405063 11.3778481 5 6 C4.67 5.01 4.34 4.02 4 3 C1.98491642 2.26676204 1.98491642 2.26676204 0 2 C0 1.34 0 0.68 0 0 Z " fill="#D0742C" transform="translate(919,153)"/>
<path d="M0 0 C2.1875 1.375 2.1875 1.375 3 3.5 C3.061875 4.11875 3.12375 4.7375 3.1875 5.375 C0.1875 7.375 0.1875 7.375 -2 7.1875 C-5.69620682 6.11970692 -9.22747337 4.77255275 -12.8125 3.375 C-4.63272472 -1.02949438 -4.63272472 -1.02949438 0 0 Z M-3.8125 2.375 C-3.4825 3.035 -3.1525 3.695 -2.8125 4.375 C-2.1525 4.375 -1.4925 4.375 -0.8125 4.375 C-0.8125 3.715 -0.8125 3.055 -0.8125 2.375 C-1.8025 2.375 -2.7925 2.375 -3.8125 2.375 Z " fill="#D9965B" transform="translate(169.8125,136.625)"/>
<path d="M0 0 C0.66 0 1.32 0 2 0 C2 5.61 2 11.22 2 17 C1.34 17 0.68 17 0 17 C0 18.98 0 20.96 0 23 C-0.33 23 -0.66 23 -1 23 C-1.90375653 16.67370431 -1.90375653 11.32629569 -1 5 C-1.99 4.67 -2.98 4.34 -4 4 C-3.01 4 -2.02 4 -1 4 C-0.67 2.68 -0.34 1.36 0 0 Z " fill="#E6914B" transform="translate(110,89)"/>
<path d="M0 0 C0.66 0 1.32 0 2 0 C2.69140625 1.79296875 2.69140625 1.79296875 3 4 C1.77734375 5.67578125 1.77734375 5.67578125 -0.0625 7.3125 C-3.68346713 10.67171047 -6.83082284 14.2124468 -10 18 C-11.125 14.25 -11.125 14.25 -10 12 C-8.68 12 -7.36 12 -6 12 C-6.33 11.01 -6.66 10.02 -7 9 C-6.01 8.67 -5.02 8.34 -4 8 C-4 6.68 -4 5.36 -4 4 C-2.68 3.67 -1.36 3.34 0 3 C0 2.01 0 1.02 0 0 Z " fill="#E37C26" transform="translate(1231,112)"/>
<path d="M0 0 C1.32 0.66 2.64 1.32 4 2 C3.01 2.495 3.01 2.495 2 3 C1.87625 3.639375 1.7525 4.27875 1.625 4.9375 C1 7 1 7 -0.625 8.3125 C-4.04115573 9.30138718 -6.56770231 8.81127036 -10 8 C-12 6.6875 -12 6.6875 -13 5 C-12.6875 2.8125 -12.6875 2.8125 -12 1 C-11.67 2.32 -11.34 3.64 -11 5 C-7.7 4.67 -4.4 4.34 -1 4 C-0.67 2.68 -0.34 1.36 0 0 Z " fill="#DD985C" transform="translate(28,119)"/>
<path d="M0 0 C6.6703036 6.46185661 12.76983149 13.31819 18 21 C14.23076923 19.49230769 14.23076923 19.49230769 13.0625 17 C12.14464466 14.73954539 12.14464466 14.73954539 9.5 14.0625 C7 13 7 13 5.6875 10.375 C5.3471875 9.199375 5.3471875 9.199375 5 8 C4.34 8 3.68 8 3 8 C0 2.25 0 2.25 0 0 Z " fill="#D27424" transform="translate(1152,129)"/>
<path d="M0 0 C0 3 0 3 -1.3125 4.6875 C-2.94937959 6.93063129 -3.51000575 8.4543937 -4.3125 11.0625 C-5.49779463 14.45446016 -5.82503793 14.88930971 -9.0625 16.9375 C-10.031875 17.288125 -11.00125 17.63875 -12 18 C-12.66 18.33 -13.32 18.66 -14 19 C-12.71606032 16.2682214 -11.30918785 13.94430645 -9.43359375 11.58203125 C-8.94826172 10.96779297 -8.46292969 10.35355469 -7.96289062 9.72070312 C-7.45951172 9.09099609 -6.95613281 8.46128906 -6.4375 7.8125 C-5.67663086 6.85053711 -5.67663086 6.85053711 -4.90039062 5.86914062 C-1.18849649 1.18849649 -1.18849649 1.18849649 0 0 Z " fill="#D77E32" transform="translate(1225,80)"/>
<path d="M0 0 C0.33 0 0.66 0 1 0 C1 8.25 1 16.5 1 25 C0.34 25 -0.32 25 -1 25 C-2.36598301 20.06615092 -1.92765321 15.29674226 -1.625 10.25 C-1.58117187 9.37472656 -1.53734375 8.49945313 -1.4921875 7.59765625 C-1.13127309 1.13127309 -1.13127309 1.13127309 0 0 Z " fill="#F7780C" transform="translate(531,157)"/>
<path d="M0 0 C2.375 1.3125 2.375 1.3125 3.1875 3.4375 C3.249375 4.05625 3.31125 4.675 3.375 5.3125 C0.0625 6.4375 0.0625 6.4375 -3.625 7.3125 C-4.615 6.6525 -5.605 5.9925 -6.625 5.3125 C-6.295 3.6625 -5.965 2.0125 -5.625 0.3125 C-2.625 -0.6875 -2.625 -0.6875 0 0 Z M-2.625 2.3125 C-2.955 2.9725 -3.285 3.6325 -3.625 4.3125 C-2.635 3.9825 -1.645 3.6525 -0.625 3.3125 C-1.285 2.9825 -1.945 2.6525 -2.625 2.3125 Z " fill="#DC965C" transform="translate(57.625,100.6875)"/>
<path d="M0 0 C0.33 0 0.66 0 1 0 C1 10.89 1 21.78 1 33 C-0.65 32.34 -2.3 31.68 -4 31 C-3.505 29.515 -3.505 29.515 -3 28 C-2.34 28 -1.68 28 -1 28 C-0.67 18.76 -0.34 9.52 0 0 Z " fill="#FD7E18" transform="translate(1260,150)"/>
<path d="M0 0 C1 2 1 2 0.3125 4.5625 C-0.3371875 5.7690625 -0.3371875 5.7690625 -1 7 C-1.66 7.144375 -2.32 7.28875 -3 7.4375 C-3.66 7.623125 -4.32 7.80875 -5 8 C-5.268125 8.9075 -5.53625 9.815 -5.8125 10.75 C-7.48305391 15.32204228 -9.93343884 16.4395726 -14 19 C-12.71606032 16.2682214 -11.30918785 13.94430645 -9.43359375 11.58203125 C-8.94826172 10.96779297 -8.46292969 10.35355469 -7.96289062 9.72070312 C-7.45951172 9.09099609 -6.95613281 8.46128906 -6.4375 7.8125 C-5.67663086 6.85053711 -5.67663086 6.85053711 -4.90039062 5.86914062 C-1.18849649 1.18849649 -1.18849649 1.18849649 0 0 Z " fill="#D27B30" transform="translate(1210,99)"/>
<path d="M0 0 C-6.45575911 5.68106802 -14.82935937 5.49017349 -23 6 C-23 5.34 -23 4.68 -23 4 C-19.8477042 2.4238521 -17.40852831 1.89619355 -13.9375 2 C-8.82171873 2 -5.28081017 -0.24003683 0 0 Z " fill="#EC761A" transform="translate(763,136)"/>
<path d="M0 0 C0.75 1.5625 0.75 1.5625 1 4 C-0.13084437 6.50286409 -1.52139516 8.67007722 -3 11 C-3.99 11 -4.98 11 -6 11 C-6 11.66 -6 12.32 -6 13 C-7.43554025 13.50559908 -8.8735202 14.0042749 -10.3125 14.5 C-11.11300781 14.7784375 -11.91351562 15.056875 -12.73828125 15.34375 C-15 16 -15 16 -18 16 C-18 15.34 -18 14.68 -18 14 C-17.14728516 13.77957031 -17.14728516 13.77957031 -16.27734375 13.5546875 C-10.42457435 11.85455081 -6.065353 9.61971931 -2 5 C-0.53574467 2.31520124 -0.53574467 2.31520124 0 0 Z " fill="#C17230" transform="translate(758,106)"/>
<path d="M0 0 C0.33 0.66 0.66 1.32 1 2 C0.67 2.66 0.34 3.32 0 4 C0.99 4.33 1.98 4.66 3 5 C3 5.66 3 6.32 3 7 C3.66 7 4.32 7 5 7 C5 8.98 5 10.96 5 13 C3.33333333 11.33333333 1.66666667 9.66666667 0 8 C-0.763125 7.278125 -1.52625 6.55625 -2.3125 5.8125 C-4 4 -4 4 -4 2 C-2.68 1.34 -1.36 0.68 0 0 Z " fill="#E57C27" transform="translate(1141,149)"/>
<path d="M0 0 C0.72265625 2.14453125 0.72265625 2.14453125 1 4 C-1.62452441 3.02517665 -3.86486992 2.09596194 -6.15625 0.46875 C-9.91366024 -1.47189046 -13.14183925 -1.55705038 -17.3125 -1.6875 C-18.05306641 -1.72166016 -18.79363281 -1.75582031 -19.55664062 -1.79101562 C-21.37058164 -1.87293554 -23.18526353 -1.93815822 -25 -2 C-25 -2.33 -25 -2.66 -25 -3 C-5.95415804 -5.14996007 -5.95415804 -5.14996007 0 0 Z " fill="#DE6D18" transform="translate(691,144)"/>
<path d="M0 0 C3.91939465 3.80411834 7.49102731 7.81576108 11 12 C10.67 12.66 10.34 13.32 10 14 C6.8260218 13.06114258 5.31635357 12.462423 3.41796875 9.6875 C3.01191406 8.800625 2.60585937 7.91375 2.1875 7 C1.76855469 6.113125 1.34960938 5.22625 0.91796875 4.3125 C0 2 0 2 0 0 Z " fill="#D7782C" transform="translate(1140,114)"/>
<path d="M0 0 C2.61857005 1.30928503 2.66420076 2.36302734 3.6875 5.0625 C5.87713828 10.25768739 9.10484658 13.98449072 13 18 C12.34 18.33 11.68 18.66 11 19 C6.60546875 15.38671875 6.60546875 15.38671875 5 14 C4.195625 13.3503125 4.195625 13.3503125 3.375 12.6875 C1.46823424 10.34737838 1.26535063 8.27344643 0.8125 5.3125 C0.65394531 4.31863281 0.49539063 3.32476562 0.33203125 2.30078125 C0.22246094 1.54152344 0.11289062 0.78226563 0 0 Z " fill="#CC732C" transform="translate(906,134)"/>
<path d="M0 0 C0.99 0 1.98 0 3 0 C3 5.28 3 10.56 3 16 C2.67 15.01 2.34 14.02 2 13 C1.34 13 0.68 13 0 13 C0 8.71 0 4.42 0 0 Z " fill="#EBA763" transform="translate(125,48)"/>
<path d="M0 0 C6 6 6 6 6.09765625 8.50390625 C6.08605469 9.51324219 6.07445312 10.52257812 6.0625 11.5625 C6.05347656 12.57441406 6.04445313 13.58632812 6.03515625 14.62890625 C6.02355469 15.41136719 6.01195312 16.19382812 6 17 C5.67 17 5.34 17 5 17 C4.8046875 14.94921875 4.609375 12.8984375 4.4140625 10.84765625 C4.20910156 9.93306641 4.20910156 9.93306641 4 9 C3.34 8.67 2.68 8.34 2 8 C-0.1519437 4.77208445 -0.20086443 3.71599191 0 0 Z " fill="#D56E20" transform="translate(779,69)"/>
<path d="M0 0 C0.99 0.33 1.98 0.66 3 1 C1.67744883 4.96765352 -0.86776076 6.46426561 -4.1796875 8.6953125 C-6.76096595 10.54541337 -8.824595 12.69275227 -11 15 C-9.3718356 11.24269753 -6.98598083 8.383177 -4.375 5.25 C-3.55773438 4.26515625 -2.74046875 3.2803125 -1.8984375 2.265625 C-1.27195312 1.51796875 -0.64546875 0.7703125 0 0 Z " fill="#D07C35" transform="translate(1195,118)"/>
<path d="M0 0 C2.75 0.5 2.75 0.5 6 2 C7.27164694 3.98091537 8.16463597 5.94320532 9.04296875 8.125 C9.98126523 10.3406167 9.98126523 10.3406167 13 12 C12.34 12.66 11.68 13.32 11 14 C9.53618641 12.42173185 8.07914837 10.83717771 6.625 9.25 C5.81289062 8.36828125 5.00078125 7.4865625 4.1640625 6.578125 C2.3374152 4.40197479 1.10212006 2.59179881 0 0 Z " fill="#DF7D2F" transform="translate(1119,130)"/>
<path d="M0 0 C1.32 0.33 2.64 0.66 4 1 C4 1.66 4 2.32 4 3 C5.65 3 7.3 3 9 3 C9 4.32 9 5.64 9 7 C2.25 6.125 2.25 6.125 0 5 C0 3.35 0 1.7 0 0 Z " fill="#E18F48" transform="translate(104,41)"/>
<path d="M0 0 C3.16115776 1.36983503 3.9927092 1.9890638 6 5 C9.12557959 5.36530232 9.12557959 5.36530232 12.625 5.1875 C13.81351563 5.16042969 15.00203125 5.13335937 16.2265625 5.10546875 C17.14179687 5.07066406 18.05703125 5.03585938 19 5 C16.56986275 7.85276981 16.15993802 7.98452213 12.125 8.375 C8.33866318 8.21520964 5.97740308 7.46699112 3 5 C1.1875 2.3125 1.1875 2.3125 0 0 Z " fill="#C46D29" transform="translate(1158,176)"/>
<path d="M0 0 C0.99 0 1.98 0 3 0 C2.35389319 3.48897679 0.98128683 6.06769549 -1 9 C-1.99 9.495 -1.99 9.495 -3 10 C-4.13350534 12.01669827 -4.13350534 12.01669827 -5 14 C-5.99 13.01 -6.98 12.02 -8 11 C-3.375 6.125 -3.375 6.125 0 5 C0 3.35 0 1.7 0 0 Z " fill="#F6780F" transform="translate(1193,152)"/>
<path d="M0 0 C0.99 0.66 1.98 1.32 3 2 C3.1875 4.625 3.1875 4.625 3 7 C2.67 5.68 2.34 4.36 2 3 C0.906875 3.185625 -0.18625 3.37125 -1.3125 3.5625 C-5 4 -5 4 -8 3 C-8.33 4.32 -8.66 5.64 -9 7 C-9.1875 4.625 -9.1875 4.625 -9 2 C-5.53001271 -0.31332486 -4.07490752 -0.33957563 0 0 Z " fill="#E09A5D" transform="translate(145,62)"/>
<path d="M0 0 C0 1.32 0 2.64 0 4 C-2.95664519 5.4783226 -5.74229737 5.06032783 -9 5 C-9.33 4.34 -9.66 3.68 -10 3 C-9.67 2.34 -9.34 1.68 -9 1 C-5.98003217 0.45091494 -3.07380605 0 0 0 Z " fill="#EB9F55" transform="translate(85,177)"/>
<path d="M0 0 C0.33 0 0.66 0 1 0 C1.41704293 2.74828288 1.809154 5.49635754 2.1875 8.25 C2.30802734 9.02730469 2.42855469 9.80460937 2.55273438 10.60546875 C2.65263672 11.35957031 2.75253906 12.11367187 2.85546875 12.890625 C2.95496826 13.58188477 3.05446777 14.27314453 3.15698242 14.98535156 C3 17 3 17 0 21 C0 14.07 0 7.14 0 0 Z " fill="#E98028" transform="translate(531,80)"/>
<path d="M0 0 C0.33 0.99 0.66 1.98 1 3 C0.01 3.495 0.01 3.495 -1 4 C-1.40729228 6.32156597 -1.74438677 8.6568787 -2 11 C-3.98 11.33 -5.96 11.66 -8 12 C-8 11.34 -8 10.68 -8 10 C-7.34 10 -6.68 10 -6 10 C-5.7525 9.0925 -5.505 8.185 -5.25 7.25 C-3.96018658 3.89648511 -2.68028958 2.32291764 0 0 Z " fill="#F27611" transform="translate(1206,139)"/>
<path d="M0 0 C0.33 0 0.66 0 1 0 C2.57578241 5.29012667 3.84941444 10.60204011 5 16 C2 15 2 15 0.8203125 13.296875 C-0.1819244 10.49061169 -0.19578721 8.22306264 -0.125 5.25 C-0.09792969 3.77273437 -0.09792969 3.77273437 -0.0703125 2.265625 C-0.04710937 1.51796875 -0.02390625 0.7703125 0 0 Z " fill="#EE7813" transform="translate(904,129)"/>
<path d="M0 0 C4.12751449 0.60698743 7.3321148 2.03810791 11 4 C10.67 4.99 10.34 5.98 10 7 C7.525 6.01 7.525 6.01 5 5 C5 4.34 5 3.68 5 3 C3.68 3 2.36 3 1 3 C0.67 2.01 0.34 1.02 0 0 Z " fill="#F27A18" transform="translate(768,65)"/>
<path d="M0 0 C2.1640625 -0.29296875 2.1640625 -0.29296875 4.625 -0.1875 C5.44226563 -0.16042969 6.25953125 -0.13335937 7.1015625 -0.10546875 C8.04128906 -0.05326172 8.04128906 -0.05326172 9 0 C9 0.99 9 1.98 9 3 C5.37 3 1.74 3 -2 3 C-1.34 2.01 -0.68 1.02 0 0 Z " fill="#F9770A" transform="translate(637,178)"/>
<path d="M0 0 C1.65 0 3.3 0 5 0 C5.33 0.99 5.66 1.98 6 3 C6.66 3.33 7.32 3.66 8 4 C8.625 7.0625 8.625 7.0625 9 10 C5.73991357 6.83047153 2.77762123 3.60062011 0 0 Z " fill="#E38231" transform="translate(1110,120)"/>
<path d="M0 0 C0.99 0 1.98 0 3 0 C3 8.25 3 16.5 3 25 C2.67 25 2.34 25 2 25 C1.97494385 24.34926514 1.9498877 23.69853027 1.92407227 23.02807617 C1.80806298 20.08101954 1.68535885 17.1342787 1.5625 14.1875 C1.52318359 13.16333984 1.48386719 12.13917969 1.44335938 11.08398438 C1.40146484 10.10107422 1.35957031 9.11816406 1.31640625 8.10546875 C1.26141968 6.74651489 1.26141968 6.74651489 1.20532227 5.36010742 C1.0791795 2.84951218 1.0791795 2.84951218 0 0 Z " fill="#CE9765" transform="translate(157,83)"/>
<path d="M0 0 C4.13621084 3.3810038 7.81316569 6.66590534 11 11 C10.67 11.66 10.34 12.32 10 13 C6.68321733 10.55605487 4.68893987 8.73979544 3 5 C2.46375 4.46375 1.9275 3.9275 1.375 3.375 C0.92125 2.92125 0.4675 2.4675 0 2 C0 1.34 0 0.68 0 0 Z " fill="#D37E3A" transform="translate(1103,68)"/>
<path d="M0 0 C7.26 0 14.52 0 22 0 C21.67 1.32 21.34 2.64 21 4 C20.01 3.34 19.02 2.68 18 2 C15.97457852 1.63648496 15.97457852 1.63648496 13.76953125 1.5859375 C12.96708984 1.54726563 12.16464844 1.50859375 11.33789062 1.46875 C10.08782227 1.42234375 10.08782227 1.42234375 8.8125 1.375 C7.96751953 1.33632813 7.12253906 1.29765625 6.25195312 1.2578125 C4.16832476 1.16363721 2.08419247 1.08073325 0 1 C0 0.67 0 0.34 0 0 Z " fill="#E4761A" transform="translate(824,61)"/>
<path d="M0 0 C0.66 0 1.32 0 2 0 C6 4.47058824 6 4.47058824 6 7 C4.68 7.33 3.36 7.66 2 8 C0.4375 5.6875 0.4375 5.6875 -1 3 C-0.67 2.01 -0.34 1.02 0 0 Z " fill="#F4780D" transform="translate(1162,144)"/>
<path d="M0 0 C2.33294775 -0.04241723 4.66702567 -0.04092937 7 0 C7.33 0.33 7.66 0.66 8 1 C9.51469448 1.23192865 11.03754562 1.41215238 12.5625 1.5625 C13.38878906 1.64628906 14.21507812 1.73007813 15.06640625 1.81640625 C15.70449219 1.87699219 16.34257813 1.93757812 17 2 C15 4 15 4 12.5390625 4.08203125 C11.57742188 3.99308594 10.61578125 3.90414062 9.625 3.8125 C8.66851563 3.73644531 7.71203125 3.66039062 6.7265625 3.58203125 C3.76543361 2.9499278 2.25200268 1.97984122 0 0 Z " fill="#D8772B" transform="translate(929,179)"/>
<path d="M0 0 C0.66 0 1.32 0 2 0 C2 1.65 2 3.3 2 5 C-2.95 5 -7.9 5 -13 5 C-13 4.67 -13 4.34 -13 4 C-12.22914062 3.96261719 -11.45828125 3.92523438 -10.6640625 3.88671875 C-9.15972656 3.78810547 -9.15972656 3.78810547 -7.625 3.6875 C-6.62726563 3.62949219 -5.62953125 3.57148438 -4.6015625 3.51171875 C-3.74304687 3.34285156 -2.88453125 3.17398438 -2 3 C-1.34 2.01 -0.68 1.02 0 0 Z " fill="#F27A17" transform="translate(1099,177)"/>
<path d="M0 0 C2.1519437 3.22791555 2.20086443 4.28400809 2 8 C0.35 8 -1.3 8 -3 8 C-3.33 7.34 -3.66 6.68 -4 6 C-2.68 4.02 -1.36 2.04 0 0 Z " fill="#F07613" transform="translate(1219,123)"/>
<path d="M0 0 C4.44380808 1.13273539 8.26436721 2.28317615 12 5 C12 5.66 12 6.32 12 7 C7.69235185 5.43358249 3.93828536 3.31663844 0 1 C0 0.67 0 0.34 0 0 Z " fill="#D5762D" transform="translate(702,154)"/>
<path d="M0 0 C4.28477792 2.30718811 7.72291137 4.32966073 11 8 C9.35 8 7.7 8 6 8 C6 7.34 6 6.68 6 6 C5.195625 5.7525 4.39125 5.505 3.5625 5.25 C1 4 1 4 0.1875 1.875 C0.125625 1.25625 0.06375 0.6375 0 0 Z " fill="#D77C30" transform="translate(739,149)"/>
<path d="M0 0 C1.32 0.33 2.64 0.66 4 1 C1.44977144 3.97526665 -1.40293526 5.50122302 -5 7 C-5.99 6.67 -6.98 6.34 -8 6 C-7.05125 5.7525 -6.1025 5.505 -5.125 5.25 C-1.91306809 4.3142923 -1.91306809 4.3142923 -0.625 1.875 C-0.41875 1.25625 -0.2125 0.6375 0 0 Z " fill="#DA762E" transform="translate(765,133)"/>
<path d="M0 0 C3 3 6 6 9 9 C8.67 9.66 8.34 10.32 8 11 C3.49413822 8.80795913 1.86918556 6.62377481 0 2 C0 1.34 0 0.68 0 0 Z " fill="#CE7731" transform="translate(1152,129)"/>
<path d="M0 0 C2 1.25 2 1.25 4 3 C4 4.32 4 5.64 4 7 C2.68 7 1.36 7 0 7 C-0.38133299 5.0085944 -0.71325582 3.00720923 -1 1 C-0.67 0.67 -0.34 0.34 0 0 Z " fill="#D58840" transform="translate(17,117)"/>
<path d="M0 0 C0.66 0 1.32 0 2 0 C2 2.31 2 4.62 2 7 C-0.475 6.01 -0.475 6.01 -3 5 C-2.67 4.01 -2.34 3.02 -2 2 C-1.34 2 -0.68 2 0 2 C0 1.34 0 0.68 0 0 Z " fill="#EE740F" transform="translate(1259,176)"/>
<path d="M0 0 C1.99954746 -0.04254356 4.00041636 -0.04080783 6 0 C7 1 7 1 7.0625 3.5625 C7.041875 4.366875 7.02125 5.17125 7 6 C3.63279613 4.60667426 2.0140476 3.0210714 0 0 Z " fill="#E07C2C" transform="translate(894,162)"/>
<path d="M0 0 C-0.33 0.66 -0.66 1.32 -1 2 C-3.28515625 2.4140625 -3.28515625 2.4140625 -6.0625 2.625 C-6.98160156 2.69976562 -7.90070312 2.77453125 -8.84765625 2.8515625 C-9.55792969 2.90054688 -10.26820313 2.94953125 -11 3 C-11 2.34 -11 1.68 -11 1 C-6.92630576 -1.03684712 -4.41062136 -1.0257259 0 0 Z " fill="#F47A14" transform="translate(751,139)"/>
<path d="M0 0 C1 3 1 3 0.22265625 4.82421875 C-0.8515625 6.54947917 -1.92578125 8.27473958 -3 10 C-3.33 10 -3.66 10 -4 10 C-4 7.36 -4 4.72 -4 2 C-3.01 2 -2.02 2 -1 2 C-0.67 1.34 -0.34 0.68 0 0 Z " fill="#D27931" transform="translate(784,115)"/>
<path d="M0 0 C3.375 -0.125 3.375 -0.125 7 0 C7.66 0.66 8.32 1.32 9 2 C6.04335481 3.4783226 3.25770263 3.06032783 0 3 C0 2.01 0 1.02 0 0 Z " fill="#E69554" transform="translate(194,116)"/>
<path d="M0 0 C0.59296875 0.21527344 1.1859375 0.43054687 1.796875 0.65234375 C0.70241662 1.51891491 -0.40410281 2.37027099 -1.515625 3.21484375 C-2.13050781 3.69050781 -2.74539063 4.16617188 -3.37890625 4.65625 C-3.98089844 4.98496094 -4.58289063 5.31367187 -5.203125 5.65234375 C-6.193125 5.32234375 -7.183125 4.99234375 -8.203125 4.65234375 C-2.74543269 -0.43323317 -2.74543269 -0.43323317 0 0 Z " fill="#E87F1F" transform="translate(633.203125,62.34765625)"/>
<path d="M0 0 C3.96 0 7.92 0 12 0 C12 0.99 12 1.98 12 3 C7.66831683 3.26252625 4.1196377 2.29243536 0 1 C0 0.67 0 0.34 0 0 Z " fill="#E6751A" transform="translate(351,165)"/>
<path d="M0 0 C2.78388975 1.70625501 3.85384206 2.47626739 4.75 5.6875 C4.8325 6.450625 4.915 7.21375 5 8 C3.68 8 2.36 8 1 8 C0.67 5.36 0.34 2.72 0 0 Z " fill="#E47924" transform="translate(1121,90)"/>
<path d="M0 0 C0.66 0 1.32 0 2 0 C2 1.32 2 2.64 2 4 C2.66 4 3.32 4 4 4 C3.34 5.32 2.68 6.64 2 8 C1.34 8 0.68 8 0 8 C0 5.36 0 2.72 0 0 Z " fill="#F09741" transform="translate(110,144)"/>
<path d="M0 0 C0.99 0 1.98 0 3 0 C4.75 2.3125 4.75 2.3125 6 5 C5.67 5.99 5.34 6.98 5 8 C0 2.25 0 2.25 0 0 Z " fill="#D87A2D" transform="translate(888,154)"/>
<path d="M0 0 C1.32 0 2.64 0 4 0 C4 0.99 4 1.98 4 3 C3.34 3 2.68 3 2 3 C2 3.66 2 4.32 2 5 C0.68 4.67 -0.64 4.34 -2 4 C-1.34 2.68 -0.68 1.36 0 0 Z " fill="#FB7E11" transform="translate(710,152)"/>
<path d="M0 0 C2.64 0.33 5.28 0.66 8 1 C8.33 2.32 8.66 3.64 9 5 C5.54074837 3.7508258 2.85306797 2.32472205 0 0 Z " fill="#D4772E" transform="translate(683,143)"/>
<path d="M0 0 C2.64 0 5.28 0 8 0 C7.01 1.485 7.01 1.485 6 3 C2.875 3.1875 2.875 3.1875 0 3 C0 2.01 0 1.02 0 0 Z " fill="#E89E5C" transform="translate(19,116)"/>
<path d="M0 0 C1.32 0 2.64 0 4 0 C4.33 1.65 4.66 3.3 5 5 C3.02 5.99 3.02 5.99 1 7 C0.67 4.69 0.34 2.38 0 0 Z " fill="#E18A41" transform="translate(143,65)"/>
<path d="M0 0 C0.66 0.33 1.32 0.66 2 1 C-0.31 3.64 -2.62 6.28 -5 9 C-5 6.29745539 -4.96569331 4.49470772 -4 2 C-2.0625 0.6875 -2.0625 0.6875 0 0 Z " fill="#CB732D" transform="translate(1184,171)"/>
<path d="M0 0 C4.75 0.875 4.75 0.875 7 2 C7 2.66 7 3.32 7 4 C7.99 4.33 8.98 4.66 10 5 C9.01 5.495 9.01 5.495 8 6 C6.0546875 5.0390625 6.0546875 5.0390625 3.875 3.625 C3.15054688 3.16351563 2.42609375 2.70203125 1.6796875 2.2265625 C1.12539063 1.82179687 0.57109375 1.41703125 0 1 C0 0.67 0 0.34 0 0 Z " fill="#D37933" transform="translate(692,148)"/>
<path d="M0 0 C1.65 0 3.3 0 5 0 C3.35 1.98 1.7 3.96 0 6 C-1.125 2.25 -1.125 2.25 0 0 Z " fill="#E28230" transform="translate(1221,124)"/>
<path d="M0 0 C1.32 0.66 2.64 1.32 4 2 C3.01 2.495 3.01 2.495 2 3 C1.34786708 5.02463255 1.34786708 5.02463255 1 7 C-0.65 6.67 -2.3 6.34 -4 6 C-3.34 5.566875 -2.68 5.13375 -2 4.6875 C-1.01 3.8521875 -1.01 3.8521875 0 3 C0 2.01 0 1.02 0 0 Z " fill="#EF9F55" transform="translate(28,119)"/>
<path d="M0 0 C1.0625 1.8125 1.0625 1.8125 2 4 C1.67 4.99 1.34 5.98 1 7 C0.34 7 -0.32 7 -1 7 C-1.66 5.68 -2.32 4.36 -3 3 C-2.01 2.01 -1.02 1.02 0 0 Z " fill="#EE7914" transform="translate(1199,115)"/>
<path d="M0 0 C2.4375 0.75 2.4375 0.75 5 2 C5.8125 4.125 5.8125 4.125 6 6 C3.5625 5.25 3.5625 5.25 1 4 C0.1875 1.875 0.1875 1.875 0 0 Z " fill="#D38A48" transform="translate(55,100)"/>
<path d="M0 0 C1.32 0.99 2.64 1.98 4 3 C3.67 4.32 3.34 5.64 3 7 C2.34 7 1.68 7 1 7 C0.67 4.69 0.34 2.38 0 0 Z " fill="#D57A2B" transform="translate(779,69)"/>
<path d="M0 0 C0.6875 1.8125 0.6875 1.8125 1 4 C-0.25 5.75 -0.25 5.75 -2 7 C-2.99 7 -3.98 7 -5 7 C-4.67 5.35 -4.34 3.7 -4 2 C-3.67 2.66 -3.34 3.32 -3 4 C-2.34 3.67 -1.68 3.34 -1 3 C-0.67 2.01 -0.34 1.02 0 0 Z " fill="#DF9B5F" transform="translate(118,40)"/>
<path d="M0 0 C3.3 0.33 6.6 0.66 10 1 C10 1.33 10 1.66 10 2 C2.25 3.125 2.25 3.125 0 2 C0 1.34 0 0.68 0 0 Z M0 3 C2 4 2 4 2 4 Z " fill="#ED781A" transform="translate(940,163)"/>
<path d="M0 0 C3.465 1.98 3.465 1.98 7 4 C7 4.66 7 5.32 7 6 C4.625 5.8125 4.625 5.8125 2 5 C0.6875 2.4375 0.6875 2.4375 0 0 Z " fill="#EE7916" transform="translate(907,145)"/>
<path d="M0 0 C1.9375 1.0625 1.9375 1.0625 4 3 C4.75 6.6875 4.75 6.6875 5 10 C2.08772731 6.71195019 0.50298788 4.40114397 0 0 Z " fill="#E17A27" transform="translate(1140,114)"/>
<path d="M0 0 C1.32 0.33 2.64 0.66 4 1 C3.67 2.65 3.34 4.3 3 6 C2.34 6 1.68 6 1 6 C0.67 4.02 0.34 2.04 0 0 Z " fill="#EB8F3F" transform="translate(114,38)"/>
<path d="M0 0 C2.97 0.33 5.94 0.66 9 1 C9 1.66 9 2.32 9 3 C6.1875 3.1875 6.1875 3.1875 3 3 C2.01 2.01 1.02 1.02 0 0 Z " fill="#F37512" transform="translate(934,178)"/>
<path d="M0 0 C0.99 0.33 1.98 0.66 3 1 C3 2.65 3 4.3 3 6 C2.67 5.01 2.34 4.02 2 3 C0.68 3.33 -0.64 3.66 -2 4 C-2 3.01 -2 2.02 -2 1 C-1.34 0.67 -0.68 0.34 0 0 Z " fill="#DA8E48" transform="translate(83,174)"/>
<path d="M0 0 C1.98 0.66 3.96 1.32 6 2 C6 2.99 6 3.98 6 5 C3.08482708 3.92598892 1.22189824 3.22189824 -1 1 C-0.67 0.67 -0.34 0.34 0 0 Z " fill="#EF7715" transform="translate(700,150)"/>
<path d="M0 0 C-0.33 0.66 -0.66 1.32 -1 2 C-3.875 2.75 -3.875 2.75 -7 3 C-7.99 2.34 -8.98 1.68 -10 1 C-6.52674819 -0.1577506 -3.63932552 -0.06866652 0 0 Z " fill="#DD945A" transform="translate(203,125)"/>
<path d="M0 0 C0.66 0 1.32 0 2 0 C2 1.65 2 3.3 2 5 C0.02 5 -1.96 5 -4 5 C-3.01 4.67 -2.02 4.34 -1 4 C-0.26676204 1.98491642 -0.26676204 1.98491642 0 0 Z " fill="#CD8742" transform="translate(110,89)"/>
</svg>
